<svg width="270" height="247" viewBox="0 0 255 232" fill="none" xmlns="http://www.w3.org/2000/svg">
<g clip-path="url(#clip0_1_831)">
<path opacity="0.912" fill-rule="evenodd" clip-rule="evenodd" d="M122.024 -0.0678406C122.295 -0.0678406 122.565 -0.0678406 122.835 -0.0678406C122.835 0.336863 122.835 0.741566 122.835 1.14627C123.286 1.14627 123.737 1.14627 124.187 1.14627C124.187 0.741566 124.187 0.336863 124.187 -0.0678406C124.593 -0.0678406 124.999 -0.0678406 125.404 -0.0678406C125.404 0.291896 125.404 0.651632 125.404 1.01137C125.765 1.01137 126.125 1.01137 126.486 1.01137C126.486 1.37111 126.486 1.73084 126.486 2.09058C126.174 2.15703 125.859 2.20199 125.54 2.22548C125.54 2.85502 125.54 3.48455 125.54 4.1141C125.089 4.1141 124.638 4.1141 124.187 4.1141C124.187 4.3839 124.187 4.6537 124.187 4.9235C124.783 4.96018 125.369 4.91522 125.945 4.7886C126.186 5.89735 126.277 7.02154 126.216 8.16113C125.588 8.24566 124.957 8.29062 124.323 8.29603C124.323 8.56583 124.323 8.83564 124.323 9.10544C125.089 9.10544 125.855 9.10544 126.621 9.10544C126.621 9.46518 126.621 9.82491 126.621 10.1846C125.903 10.2653 125.182 10.3103 124.458 10.3195C124.458 10.9491 124.458 11.5786 124.458 12.2082C124.052 12.2082 123.647 12.2082 123.241 12.2082C123.142 11.5835 123.097 10.954 123.106 10.3195C122.34 10.3195 121.574 10.3195 120.807 10.3195C120.807 9.95981 120.807 9.60008 120.807 9.24034C121.574 9.24034 122.34 9.24034 123.106 9.24034C123.106 8.92558 123.106 8.6108 123.106 8.29603C122.475 8.29603 121.844 8.29603 121.213 8.29603C121.235 7.168 121.19 6.04383 121.078 4.9235C121.709 4.9235 122.34 4.9235 122.971 4.9235C122.971 4.6537 122.971 4.3839 122.971 4.1141C122.554 4.08173 122.149 4.1267 121.754 4.249C121.619 3.58043 121.574 2.90592 121.619 2.22548C121.309 2.19089 121.016 2.23585 120.74 2.36038C120.672 1.95816 120.65 1.55346 120.672 1.14627C120.988 1.14627 121.303 1.14627 121.619 1.14627C121.619 0.786533 121.619 0.426797 121.619 0.0670606C121.793 0.0990733 121.928 0.0541063 122.024 -0.0678406ZM122.835 2.22548C123.295 2.18226 123.746 2.22723 124.187 2.36038C124.297 2.5723 124.342 2.79714 124.323 3.03489C123.862 3.00107 123.411 3.04604 122.971 3.16979C122.839 2.86724 122.794 2.55248 122.835 2.22548ZM122.295 6.00271C122.565 6.00271 122.835 6.00271 123.106 6.00271C123.106 6.40742 123.106 6.81212 123.106 7.21682C122.835 7.21682 122.565 7.21682 122.295 7.21682C122.295 6.81212 122.295 6.40742 122.295 6.00271ZM124.187 6.00271C124.458 6.00271 124.728 6.00271 124.999 6.00271C125.041 6.37327 124.996 6.733 124.864 7.08192C124.651 7.19111 124.426 7.23607 124.187 7.21682C124.187 6.81212 124.187 6.40742 124.187 6.00271Z" fill="#005697"/>
<path opacity="0.933" fill-rule="evenodd" clip-rule="evenodd" d="M128.244 0.472244C129.596 0.472244 130.948 0.472244 132.3 0.472244C132.409 3.16897 132.499 5.867 132.57 8.56631C130.722 8.607 128.875 8.65198 127.027 8.70121C126.965 6.00353 126.92 3.30551 126.892 0.607145C127.37 0.649338 127.821 0.604372 128.244 0.472244ZM128.244 1.82126C129.145 1.82126 130.046 1.82126 130.948 1.82126C130.926 2.5021 130.971 3.17661 131.083 3.84477C130.177 3.82261 129.275 3.86757 128.379 3.97967C128.298 3.26294 128.253 2.54348 128.244 1.82126ZM128.92 5.19378C129.641 5.19378 130.362 5.19378 131.083 5.19378C131.083 5.86829 131.083 6.5428 131.083 7.2173C130.181 7.24602 129.279 7.29098 128.379 7.3522C128.379 6.6777 128.379 6.00319 128.379 5.32869C128.595 5.36481 128.775 5.31985 128.92 5.19378Z" fill="#005698"/>
<path opacity="0.912" fill-rule="evenodd" clip-rule="evenodd" d="M115.67 0.741852C115.895 0.741852 116.12 0.741852 116.346 0.741852C116.458 1.54844 116.548 2.35785 116.616 3.17007C117.205 3.09469 117.79 3.00475 118.374 2.90027C118.469 3.34357 118.514 3.79323 118.509 4.24928C117.968 4.33922 117.427 4.42915 116.886 4.51908C116.864 4.8816 116.887 5.24134 116.954 5.59829C117.858 6.65794 118.737 7.73715 119.591 8.83592C119.372 9.23381 119.102 9.59355 118.779 9.91513C118.172 9.15596 117.564 8.39153 116.954 7.62181C116.676 8.58951 116.315 9.53382 115.872 10.4547C115.816 10.5164 115.749 10.5614 115.67 10.5896C115.396 10.339 115.103 10.1141 114.791 9.91513C115.108 9.05194 115.379 8.15259 115.602 7.21711C115.669 6.40894 115.692 5.59953 115.67 4.78889C115.183 4.82852 114.71 4.91845 114.25 5.05869C114.109 4.66261 113.996 4.2579 113.912 3.84458C114.369 3.59113 114.864 3.45622 115.399 3.43987C115.249 2.58799 115.114 1.73362 114.994 0.876753C115.252 0.91513 115.478 0.870163 115.67 0.741852Z" fill="#005597"/>
<path opacity="0.89" fill-rule="evenodd" clip-rule="evenodd" d="M112.289 1.41675C112.875 2.14419 113.371 2.9536 113.776 3.84497C113.395 4.20738 112.967 4.34228 112.492 4.24967C112.067 3.44802 111.684 2.63862 111.343 1.82145C111.713 1.79349 112.029 1.65859 112.289 1.41675Z" fill="#005597"/>
<path opacity="0.918" fill-rule="evenodd" clip-rule="evenodd" d="M109.72 1.68599C109.943 1.65718 110.145 1.70215 110.329 1.82089C110.349 2.17423 110.462 2.48901 110.667 2.76519C110.834 2.66459 111.014 2.61961 111.208 2.63029C111.297 3.02895 111.342 3.43366 111.343 3.8444C111.113 3.82279 110.888 3.84528 110.667 3.91185C110.833 4.51565 110.946 5.1227 111.005 5.73302C110.725 5.83606 110.432 5.90351 110.126 5.93537C109.823 6.19711 109.823 6.4894 110.126 6.81223C110.656 6.66407 111.197 6.57413 111.748 6.54243C111.899 7.62669 112.08 8.7059 112.289 9.78005C111.699 9.86321 111.113 9.97562 110.532 10.1173C110.654 10.3466 110.699 10.5939 110.667 10.8593C111.349 10.8132 112.025 10.7233 112.695 10.5895C112.72 10.8679 112.788 11.1377 112.898 11.3989C113.15 11.1265 113.308 10.8117 113.371 10.4546C113.183 9.28282 112.98 8.11367 112.762 6.94713C112.488 6.88153 112.196 6.88153 111.884 6.94713C111.839 6.49746 111.793 6.04778 111.748 5.59812C112.34 5.55221 112.926 5.46227 113.506 5.32832C113.596 5.37328 113.686 5.41826 113.777 5.46322C114.113 6.98204 114.406 8.51092 114.655 10.0499C114.677 10.3434 114.79 10.5907 114.993 10.7918C115.491 11.0997 116.032 11.257 116.616 11.264C117.746 11.0985 118.873 10.9186 119.996 10.7244C119.922 11.1704 119.877 11.6201 119.861 12.0734C118.763 12.279 117.658 12.4588 116.548 12.613C115.763 12.5738 115.042 12.349 114.385 11.9385C113.982 12.4091 113.599 12.9038 113.236 13.4224C112.922 13.1774 112.629 12.9076 112.357 12.613C112.272 12.348 112.34 12.1231 112.56 11.9385C112.469 11.8935 112.379 11.8485 112.289 11.8036C111.84 11.9111 111.39 12.0011 110.937 12.0734C111.018 12.5454 111.108 13.0175 111.208 13.4898C111.196 13.6392 111.151 13.7741 111.072 13.8945C110.749 13.9333 110.434 14.0007 110.126 14.0969C109.919 13.5296 109.783 12.9451 109.72 12.3432C109.042 12.4414 108.366 12.5088 107.692 12.5455C107.594 12.259 107.504 11.9667 107.422 11.6687C107.467 11.6237 107.512 11.5787 107.557 11.5338C108.093 11.4071 108.634 11.2947 109.179 11.1965C109.539 10.8535 109.494 10.5612 109.044 10.3197C108.553 10.4446 108.058 10.5345 107.557 10.5895C107.428 9.56945 107.248 8.55769 107.016 7.55419C107.071 7.42665 107.161 7.33671 107.287 7.28438C107.79 7.20077 108.286 7.08834 108.774 6.94713C108.664 6.73521 108.619 6.51037 108.639 6.27262C108.188 6.31759 107.737 6.36256 107.287 6.40753C107.27 5.76151 107.157 5.13197 106.949 4.51891C106.719 4.64114 106.471 4.68611 106.205 4.65381C106.077 4.28857 106.077 3.92882 106.205 3.5746C106.423 3.48638 106.649 3.41893 106.881 3.37225C106.364 2.35778 106.679 1.95308 107.827 2.15814C107.931 2.43729 107.998 2.72958 108.03 3.035C108.106 3.1054 108.196 3.15036 108.301 3.1699C108.634 3.08076 108.972 3.0133 109.315 2.96755C109.218 2.6356 109.127 2.29834 109.044 1.95579C109.286 1.86543 109.512 1.77549 109.72 1.68599ZM109.044 4.11421C109.203 4.08466 109.338 4.12963 109.45 4.24911C109.565 4.50658 109.61 4.77638 109.585 5.05851C109.177 5.08601 108.771 5.13097 108.368 5.19342C108.401 4.92804 108.356 4.68072 108.233 4.45146C108.504 4.31397 108.774 4.20155 109.044 4.11421ZM110.261 7.75654C110.441 7.75654 110.622 7.75654 110.802 7.75654C110.891 8.1552 110.936 8.5599 110.937 8.97065C110.149 8.91493 109.923 8.51023 110.261 7.75654ZM108.774 8.02634C108.909 8.02231 108.999 8.08976 109.044 8.22869C109.155 8.55703 109.201 8.89428 109.179 9.24045C108.986 9.22977 108.806 9.27474 108.639 9.37535C108.418 9.00223 108.328 8.59752 108.368 8.16124C108.543 8.19325 108.678 8.14829 108.774 8.02634Z" fill="#005597"/>
<path opacity="0.923" fill-rule="evenodd" clip-rule="evenodd" d="M141.223 10.0503C141.506 9.46401 141.709 8.83447 141.832 8.16172C142.17 6.22637 142.508 4.29278 142.846 2.36097C144.463 2.48753 146.085 2.53249 147.713 2.49587C147.72 2.99474 147.766 3.48939 147.848 3.97978C146.583 4.00502 145.321 3.96006 144.063 3.84488C143.937 4.51442 143.848 5.18893 143.792 5.8684C145.056 6.03078 146.319 6.21064 147.578 6.408C147.523 6.9167 147.41 7.41134 147.24 7.89191C146.925 7.80197 146.609 7.71205 146.294 7.62211C145.803 9.66315 145.397 11.7316 145.077 13.8276C144.614 13.9309 144.141 13.9309 143.657 13.8276C144.036 11.672 144.395 9.51359 144.739 7.35231C144.298 7.26623 143.869 7.26623 143.454 7.35231C143.211 9.63734 142.377 11.6609 140.953 13.4229C140.636 13.0399 140.298 12.6802 139.939 12.3437C139.633 12.5681 139.317 12.613 138.992 12.4786C138.66 11.8374 138.277 11.2303 137.843 10.6574C138.158 10.455 138.475 10.2527 138.79 10.0503C138.085 9.82827 137.364 9.69337 136.626 9.64563C135.933 9.455 135.212 9.3201 134.463 9.24092C134.521 8.88133 134.589 8.52159 134.666 8.16172C134.954 7.98908 135.247 7.98908 135.545 8.16172C135.939 6.41511 136.3 4.66139 136.626 2.90057C136.409 2.79017 136.184 2.70023 135.95 2.63077C135.839 2.23328 135.839 1.82858 135.95 1.41666C136.263 1.48311 136.578 1.52807 136.897 1.55156C136.856 1.11528 136.947 0.710574 137.167 0.337448C137.566 0.461907 137.972 0.551841 138.384 0.60725C138.357 1.01433 138.311 1.41903 138.249 1.82136C138.917 1.90596 139.57 2.04086 140.209 2.22606C140.277 1.81959 140.344 1.41489 140.412 1.01195C140.862 1.05692 141.314 1.10189 141.764 1.14685C141.748 1.60011 141.703 2.04979 141.629 2.49587C141.855 2.49587 142.079 2.49587 142.305 2.49587C142.278 2.90294 142.232 3.30765 142.17 3.70998C141.899 3.70998 141.629 3.70998 141.358 3.70998C141.077 5.42543 140.762 7.13419 140.412 8.83622C140.701 9.02078 141.016 9.15568 141.358 9.24092C141.244 9.4984 141.199 9.7682 141.223 10.0503ZM137.978 3.03547C138.614 3.14129 139.245 3.27619 139.871 3.44017C139.917 3.73091 139.917 4.04568 139.871 4.38448C139.198 4.27992 138.522 4.18998 137.843 4.11468C137.854 3.74961 137.899 3.38988 137.978 3.03547ZM137.573 5.19389C138.241 5.34529 138.917 5.48019 139.601 5.59859C139.535 5.90962 139.489 6.2244 139.466 6.5429C138.834 6.44531 138.203 6.33289 137.573 6.20565C137.486 5.88272 137.486 5.54547 137.573 5.19389ZM137.167 7.35231C137.797 7.48707 138.429 7.62198 139.06 7.75701C139.136 8.05615 139.136 8.37093 139.06 8.70132C138.384 8.61138 137.708 8.52146 137.032 8.43152C137.112 8.07711 137.156 7.71738 137.167 7.35231ZM141.223 10.0503C141.075 10.7057 140.783 11.2902 140.344 11.804C139.987 11.2457 139.605 10.7061 139.195 10.1852C139.263 10.1403 139.33 10.0953 139.398 10.0503C139.82 10.1661 140.248 10.256 140.682 10.3201C140.9 10.2793 141.081 10.1893 141.223 10.0503Z" fill="#005697"/>
<path opacity="0.922" fill-rule="evenodd" clip-rule="evenodd" d="M152.581 3.84497C153.033 3.98088 153.484 4.11578 153.933 4.24967C153.65 5.26389 153.289 6.25316 152.851 7.2175C153.101 7.49696 153.417 7.67682 153.798 7.7571C153.944 7.87379 153.967 8.0087 153.865 8.16181C153.76 8.52827 153.579 8.84303 153.325 9.10612C152.992 8.95801 152.654 8.82311 152.311 8.70141C151.789 9.90338 151.292 11.1175 150.823 12.3437C151.249 12.5496 151.701 12.6395 152.175 12.6135C152.013 13.099 151.878 13.5936 151.77 14.0975C150.336 13.8546 148.894 13.6747 147.443 13.5579C147.455 13.0674 147.546 12.5952 147.713 12.1414C148.261 12.1658 148.802 12.1434 149.336 12.0739C149.909 10.75 150.405 9.40096 150.823 8.02691C150.388 7.9445 149.982 7.78711 149.606 7.55475C149.786 7.19501 149.967 6.83528 150.147 6.47554C150.579 6.46097 150.984 6.57339 151.364 6.8128C151.822 5.8433 152.228 4.85403 152.581 3.84497Z" fill="#005597"/>
<path opacity="0.931" fill-rule="evenodd" clip-rule="evenodd" d="M155.42 5.73309C157.551 6.45861 159.67 7.22305 161.775 8.02641C160.856 10.5976 159.909 13.1607 158.936 15.7158C156.816 14.9733 154.72 14.1639 152.649 13.2876C152.558 13.1077 152.558 12.9278 152.649 12.748C153.611 10.4219 154.536 8.08362 155.42 5.73309ZM156.367 7.48681C157.489 7.93544 158.617 8.3851 159.747 8.83582C159.758 9.47444 159.578 10.0815 159.206 10.657C157.999 10.3033 156.828 9.83119 155.691 9.24052C155.956 8.66804 156.18 8.08348 156.367 7.48681ZM155.15 10.5895C156.292 11.1146 157.465 11.5643 158.665 11.9385C158.541 12.5475 158.338 13.132 158.057 13.6923C157.915 13.8295 157.757 13.852 157.584 13.7597C156.56 13.3499 155.546 12.9227 154.542 12.4782C154.698 11.8466 154.901 11.217 155.15 10.5895Z" fill="#015597"/>
<path opacity="0.96" fill-rule="evenodd" clip-rule="evenodd" d="M97.1459 8.29664C99.3911 8.08556 100.36 9.07483 100.053 11.2645C99.3587 12.5981 98.2995 12.9803 96.8755 12.4111C95.8066 11.6434 95.5136 10.6317 95.9967 9.37585C96.2883 8.90694 96.6714 8.54722 97.1459 8.29664Z" fill="#005697"/>
<path opacity="0.912" fill-rule="evenodd" clip-rule="evenodd" d="M136.627 9.64512C136.963 9.86841 137.234 10.1607 137.438 10.522C136.79 11.0928 136.114 11.6324 135.41 12.1408C135.239 12.2733 135.059 12.3182 134.869 12.2757C134.649 11.9212 134.379 11.6065 134.058 11.3314C134.779 10.7918 135.5 10.2522 136.221 9.71257C136.349 9.64744 136.485 9.62495 136.627 9.64512Z" fill="#035494"/>
<path opacity="0.91" fill-rule="evenodd" clip-rule="evenodd" d="M127.973 10.1851C129.731 10.1851 131.489 10.1851 133.246 10.1851C133.246 10.5898 133.246 10.9945 133.246 11.3992C130.947 11.4225 128.649 11.4675 126.351 11.5341C126.351 11.1294 126.351 10.7247 126.351 10.32C126.919 10.3628 127.46 10.3178 127.973 10.1851Z" fill="#005698"/>
<path opacity="0.912" fill-rule="evenodd" clip-rule="evenodd" d="M150.823 14.2319C153.494 15.2261 156.152 16.2602 158.8 17.3346C158.898 17.7045 158.83 18.0643 158.598 18.4138C158.456 18.551 158.298 18.5735 158.124 18.4812C155.52 17.4966 152.951 16.4399 150.418 15.3111C150.607 14.9691 150.742 14.6093 150.823 14.2319Z" fill="#015596"/>
<path opacity="0.933" fill-rule="evenodd" clip-rule="evenodd" d="M85.7888 11.534C86.3124 11.7413 86.7632 12.0561 87.1409 12.4783C86.3258 13.302 85.492 14.1114 84.6395 14.9066C84.7663 15.5558 85.1044 16.0954 85.6536 16.5254C86.6557 15.7893 87.6698 15.0699 88.6957 14.367C89.0378 14.7127 89.3308 15.095 89.5746 15.5136C89.2591 15.7385 88.9436 15.9632 88.6281 16.1881C89.8949 17.884 91.1117 19.6151 92.2787 21.3818C92.0299 21.7643 91.6919 22.0341 91.2647 22.1912C90.0101 20.521 88.7706 18.8347 87.5465 17.1324C87.145 17.2212 86.7846 17.4235 86.4648 17.7395C87.6219 19.2841 88.4557 20.9929 88.9661 22.8657C89.0333 23.2227 89.0559 23.5825 89.0337 23.9449C88.5444 23.8446 88.0488 23.7996 87.5465 23.81C87.5014 24.0798 87.4563 24.3496 87.4113 24.6194C86.6006 24.4847 85.7893 24.3498 84.9775 24.2147C85.0364 23.7971 85.104 23.3924 85.1804 23.0006C84.5719 23.4279 83.9635 23.855 83.3551 24.2822C83.7582 24.3494 84.1639 24.3719 84.5719 24.3496C84.492 25.3919 84.3568 26.4262 84.1663 27.4524C83.7157 27.4074 83.2649 27.3624 82.8142 27.3175C82.9585 26.3669 83.0711 25.4226 83.1523 24.4845C82.6153 24.818 82.097 25.1777 81.5974 25.5637C81.2796 25.2687 81.0092 24.9315 80.7861 24.552C81.0565 24.3722 81.327 24.1922 81.5974 24.0124C80.5217 22.5629 79.4626 21.1015 78.42 19.6281C78.0436 20.1347 77.683 20.1347 77.3384 19.6281C77.2525 19.4303 77.1397 19.2504 77.0003 19.0885C77.2257 18.9087 77.451 18.7287 77.6764 18.5489C77.4179 18.2579 77.1925 17.943 77.0003 17.6046C77.3609 17.3348 77.7214 17.065 78.082 16.7952C78.3935 17.0557 78.6415 17.3704 78.8256 17.7395C79.389 17.3573 79.9523 16.975 80.5157 16.5928C80.2638 16.2739 80.0386 15.9367 79.8397 15.5811C80.2003 15.3113 80.5607 15.0415 80.9213 14.7717C81.1726 15.0447 81.3979 15.337 81.5974 15.6485C81.8566 15.6449 82.082 15.5324 82.2734 15.3113C82.5499 15.616 82.7752 15.9533 82.9494 16.323C82.7738 16.5019 82.5936 16.6819 82.4086 16.8626C83.3491 18.1323 84.273 19.4139 85.1804 20.7073C85.3181 20.8674 85.4759 21.0023 85.6536 21.112C85.8338 20.9771 86.0142 20.8422 86.1944 20.7073C86.3721 20.817 86.5299 20.9519 86.6676 21.112C86.5701 20.6907 86.3899 20.286 86.1268 19.8979C84.9063 18.2529 83.7119 16.5892 82.5438 14.9066C83.7194 13.8686 84.8011 12.7444 85.7888 11.534ZM81.1918 17.6046C81.417 17.8322 81.5974 18.102 81.7326 18.414C81.2564 18.866 80.738 19.2707 80.1777 19.6281C79.9243 19.349 79.7891 19.0343 79.7721 18.6838C80.2667 18.3376 80.7399 17.978 81.1918 17.6046ZM82.4086 19.4932C82.6951 19.6674 82.9204 19.9148 83.0846 20.2352C82.5966 20.4974 82.1459 20.8121 81.7326 21.1795C81.3295 21.2309 81.0591 21.051 80.9213 20.6399C81.4263 20.255 81.9221 19.8727 82.4086 19.4932ZM83.6255 21.2469C83.9377 21.3667 84.1631 21.5914 84.3015 21.9214C83.8484 22.3731 83.3526 22.7778 82.8142 23.1355C82.5429 22.9321 82.3175 22.6847 82.1382 22.3936C82.6921 22.0739 83.1879 21.6917 83.6255 21.2469ZM87.0056 21.6516C87.3547 22.1452 87.49 22.6848 87.4113 23.2704C86.7815 23.1357 86.1505 23.0008 85.5184 22.8657C86.0431 22.4922 86.5389 22.0875 87.0056 21.6516Z" fill="#015596"/>
<path opacity="0.952" fill-rule="evenodd" clip-rule="evenodd" d="M169.211 15.3111C171.393 15.2617 172.272 16.296 171.848 18.4138C170.985 19.77 169.836 20.0622 168.4 19.2907C167.287 18.0376 167.332 16.8235 168.535 15.6483C168.78 15.5462 169.006 15.4338 169.211 15.3111Z" fill="#005697"/>
<path opacity="0.996" fill-rule="evenodd" clip-rule="evenodd" d="M127.297 16.5253C130.55 18.5797 132.961 21.3675 134.531 24.8891C135.575 27.9546 135.258 30.8775 133.584 33.6577C132.204 35.7994 130.492 37.643 128.446 39.1887C128.379 44.3597 128.356 49.5309 128.379 54.7023C127.748 54.7023 127.117 54.7023 126.486 54.7023C126.509 49.5309 126.486 44.3597 126.418 39.1887C124.418 37.6878 122.75 35.8891 121.416 33.7926C119.163 30.1118 119.163 26.4246 121.416 22.7307C123.031 20.3323 124.991 18.2639 127.297 16.5253Z" fill="#00956A"/>
<path opacity="0.932" fill-rule="evenodd" clip-rule="evenodd" d="M73.7553 20.8425C74.9197 21.7793 76.0014 22.8135 77.0003 23.9452C75.7673 25.378 74.4603 26.7494 73.0793 28.0597C73.1858 28.4747 73.2534 28.9018 73.2821 29.3413C74.632 27.8819 76.0066 26.4429 77.4059 25.0244C78.2532 25.5706 78.6138 26.3577 78.4875 27.3852C78.202 30.853 77.0301 33.9781 74.9722 36.7608C74.4609 36.6281 73.9651 36.4708 73.4849 36.2887C74.3982 35.0067 75.2094 33.6577 75.9186 32.2416C75.1502 32.2944 74.384 32.4068 73.6201 32.5789C73.6201 32.0842 73.6201 31.5897 73.6201 31.095C74.6144 30.9326 75.6059 30.7527 76.5946 30.5554C76.8116 29.5761 76.8792 28.5868 76.7974 27.5876C75.6748 28.8427 74.5031 30.0568 73.2821 31.2299C73.1481 32.4135 72.9453 33.5827 72.6736 34.7373C72.2331 34.6136 71.7825 34.5686 71.3216 34.6024C71.4936 33.6176 71.6513 32.6283 71.7948 31.6346C71.885 30.9152 71.885 30.1956 71.7948 29.4762C70.9779 30.2687 70.1891 31.0781 69.4287 31.9044C68.2614 30.9648 67.1798 29.9305 66.1837 28.8017C68.7105 26.1459 71.2344 23.4928 73.7553 20.8425ZM73.6201 22.866C74.1494 23.1686 74.6002 23.5733 74.9722 24.0801C74.642 24.5157 74.2815 24.9204 73.8905 25.2942C73.4363 24.8856 72.9857 24.4809 72.5384 24.0801C72.902 23.6727 73.2626 23.268 73.6201 22.866ZM71.4568 25.1593C71.9597 25.5012 72.4104 25.9059 72.8088 26.3734C72.4483 26.8231 72.0426 27.2278 71.592 27.5876C71.1413 27.2278 70.7357 26.8231 70.3751 26.3734C70.7387 25.966 71.0993 25.5613 71.4568 25.1593ZM69.2935 27.4527C69.7618 27.8522 70.2125 28.2795 70.6455 28.7342C70.2625 29.1164 69.8793 29.4987 69.4963 29.8809C69.0032 29.5465 68.5751 29.1418 68.2118 28.6668C68.5754 28.2594 68.936 27.8547 69.2935 27.4527Z" fill="#015597"/>
<path opacity="0.938" fill-rule="evenodd" clip-rule="evenodd" d="M179.081 21.6513C180.183 22.7653 181.288 23.8895 182.394 25.0238C183.02 24.5339 183.607 23.9943 184.151 23.405C184.534 23.7872 184.918 24.1695 185.301 24.5517C184.715 25.1362 184.128 25.7209 183.543 26.3054C184.673 27.3887 185.755 28.5128 186.788 29.6779C185.233 31.1393 183.678 32.6008 182.123 34.0622C181.735 33.72 181.397 33.3378 181.109 32.9156C181.357 32.7654 181.469 32.5631 181.447 32.3085C180.77 31.6094 180.071 30.9349 179.352 30.285C178.425 31.1867 177.479 32.0635 176.512 32.9156C176.027 32.7278 175.621 32.3905 175.295 31.9038C176.222 30.8673 177.213 29.9005 178.27 29.0034C177.526 28.2615 176.783 27.5195 176.039 26.7775C175.901 26.9377 175.743 27.0726 175.566 27.1823C175.16 26.8675 174.799 26.5077 174.484 26.103C176.019 24.6163 177.552 23.1324 179.081 21.6513ZM179.081 23.8097C179.895 24.4864 180.616 25.2509 181.245 26.103C180.656 26.8025 180.003 27.432 179.284 27.9917C178.635 27.209 177.936 26.467 177.188 25.7658C177.847 25.1315 178.478 24.4795 179.081 23.8097ZM182.326 27.3172C182.426 27.2995 182.517 27.322 182.597 27.3846C183.223 28.1448 183.899 28.8642 184.625 29.543C183.928 30.1251 183.252 30.7322 182.597 31.3642C181.922 30.6503 181.246 29.9309 180.568 29.2058C181.158 28.5735 181.743 27.9439 182.326 27.3172Z" fill="#015597"/>
<path opacity="0.991" fill-rule="evenodd" clip-rule="evenodd" d="M112.83 29.0712C114.832 28.9834 116.815 29.1183 118.779 29.4759C119.557 33.3229 121.472 36.4705 124.525 38.919C124.593 44.18 124.616 49.4411 124.593 54.7024C123.962 54.7024 123.331 54.7024 122.7 54.7024C122.7 52.4091 122.7 50.1158 122.7 47.8224C117.423 48.0117 112.195 48.6188 107.016 49.6436C104.179 50.1676 101.475 51.0668 98.9037 52.3416C98.2541 52.8646 98.3443 53.3144 99.1741 53.6906C102.413 55.1423 105.793 56.1317 109.315 56.6585C118.509 58.11 127.748 58.4698 137.032 57.7377C142.701 57.3571 148.245 56.3228 153.662 54.635C154.445 54.312 155.211 53.9524 155.961 53.5557C156.166 53.3735 156.346 53.1711 156.502 52.9487C156.25 52.5858 155.935 52.2936 155.555 52.0718C153.31 51.0169 150.966 50.2524 148.525 49.7785C143.126 48.668 137.673 48.0159 132.165 47.8224C132.165 50.1158 132.165 52.4091 132.165 54.7024C131.534 54.7024 130.903 54.7024 130.272 54.7024C130.249 49.4411 130.272 44.18 130.339 38.919C133.456 36.5044 135.372 33.3567 136.086 29.4759C138.325 29.0567 140.577 28.9668 142.846 29.2061C144.022 37.4298 140.462 41.3868 132.165 41.0774C132.165 41.8419 132.165 42.6062 132.165 43.3707C139.22 43.4543 146.16 44.3763 152.986 46.1362C155.261 46.7542 157.379 47.6985 159.341 48.9691C161.041 50.3787 161.604 52.1548 161.031 54.2977C160.463 56.8786 159.832 59.4417 159.138 61.9871C159.03 61.8112 158.872 61.7212 158.665 61.7173C158.224 61.7812 157.84 61.961 157.516 62.2569C157.471 61.6723 157.425 61.0877 157.381 60.5032C157.347 60.0593 157.212 59.6546 156.975 59.289C155.511 60.4824 154.315 61.8988 153.392 63.5384C150.576 63.8185 148.323 65.0775 146.632 67.3157C149.278 67.6311 149.639 68.7103 147.713 70.5533C146.542 71.3631 145.281 71.5655 143.928 71.1603C143.59 72.3967 142.959 73.4534 142.035 74.3305C140.712 75.1069 139.383 75.1293 138.046 74.398C137.685 73.6191 137.708 72.8322 138.114 72.0372C138.069 71.9697 138.023 71.9023 137.978 71.8349C136.675 72.5728 135.323 72.6853 133.922 72.1721C132.851 71.2382 132.851 70.2939 133.922 69.3392C134.854 68.7413 135.868 68.3591 136.964 68.1925C136.518 66.8958 135.595 66.109 134.193 65.8317C133.013 65.644 131.841 65.5315 130.677 65.4945C129.873 64.1069 128.791 62.9828 127.432 62.122C126.074 62.9828 124.992 64.1069 124.187 65.4945C122.881 65.525 121.574 65.6824 120.266 65.9666C119.122 66.3127 118.311 67.0321 117.833 68.1251C118.879 68.3231 119.87 68.6829 120.807 69.2043C121.89 70.0291 122.025 70.9734 121.213 72.0372C119.744 72.6977 118.302 72.6302 116.886 71.8349C116.841 71.8798 116.796 71.9248 116.751 71.9697C117.657 73.8337 117.093 74.823 115.061 74.9376C113.526 74.9342 112.399 74.2597 111.681 72.9141C111.455 72.3295 111.23 71.7449 111.005 71.1603C108.992 71.6751 107.37 71.0905 106.137 69.4066C105.731 68.5307 105.979 67.9237 106.881 67.5855C107.337 67.5245 107.788 67.4346 108.233 67.3157C106.532 65.0947 104.278 63.8131 101.473 63.471C100.6 61.8122 99.4053 60.4183 97.8896 59.289C97.7731 59.5031 97.6829 59.728 97.6192 59.9635C97.4651 60.74 97.3975 61.5045 97.4164 62.2569C97.0766 61.9863 96.6936 61.8063 96.2671 61.7173C96.0358 61.709 95.8556 61.799 95.7263 61.9871C94.9316 58.9278 94.233 55.8476 93.6306 52.7463C93.7323 51.0139 94.4984 49.6649 95.9291 48.6993C97.6577 47.6349 99.5056 46.8255 101.473 46.2711C108.427 44.4313 115.503 43.4646 122.7 43.3707C122.7 42.6062 122.7 41.8419 122.7 41.0774C114.379 41.3835 110.864 37.4264 112.154 29.2061C112.413 29.2444 112.638 29.1995 112.83 29.0712Z" fill="#00956A"/>
<path opacity="0.928" fill-rule="evenodd" clip-rule="evenodd" d="M190.574 31.6343C190.752 31.6114 190.911 31.6563 191.047 31.7692C192.991 34.8609 194.952 37.9411 196.929 41.0099C193.657 43.1275 190.367 45.2184 187.059 47.2828C186.754 46.9013 186.484 46.4966 186.247 46.0687C186.381 45.9116 186.516 45.7541 186.653 45.5966C185.24 43.2935 183.774 41.0228 182.259 38.7841C182.106 39.0149 181.903 39.0823 181.65 38.9864C181.458 38.604 181.234 38.2442 180.974 37.9072C184.183 35.813 187.383 33.722 190.574 31.6343ZM190.439 33.5229C191.971 35.7746 193.458 38.0679 194.901 40.4029C192.547 41.9486 190.18 43.4774 187.802 44.9895C186.338 42.7187 184.872 40.4478 183.408 38.177C185.775 36.6441 188.119 35.0928 190.439 33.5229ZM189.763 40.8076C189.45 40.742 189.158 40.742 188.884 40.8076C188.791 41.2711 188.655 41.7209 188.478 42.1566C188.247 41.763 188 41.3806 187.735 41.0099C188.231 40.6727 188.726 40.3354 189.222 39.9982C189.458 40.2337 189.638 40.5035 189.763 40.8076Z" fill="#015597"/>
<path opacity="0.893" fill-rule="evenodd" clip-rule="evenodd" d="M63.074 34.7374C62.9626 34.2971 62.9174 33.8473 62.9388 33.3884C63.75 33.2086 64.5612 33.0286 65.3725 32.8488C65.5031 33.3297 65.5031 33.8018 65.3725 34.2652C64.5919 34.3804 63.8258 34.5379 63.074 34.7374Z" fill="#015496"/>
<path opacity="0.928" fill-rule="evenodd" clip-rule="evenodd" d="M63.0738 34.7371C63.6284 35.1272 64.2142 35.487 64.8315 35.8163C65.4618 34.9838 66.0702 34.1295 66.6568 33.2532C67.0176 33.5014 67.3556 33.7712 67.6708 34.0626C67.1805 34.9289 66.6397 35.7609 66.0483 36.5583C66.713 36.9234 67.3665 37.3057 68.0088 37.7049C67.9474 36.9348 67.7446 36.1928 67.4004 35.479C67.711 35.1553 68.0941 34.9529 68.5497 34.872C68.8044 35.135 68.9847 35.4499 69.0905 35.8163C69.4028 36.7033 69.6732 37.6027 69.9017 38.5143C70.3474 38.7577 70.8206 38.8251 71.3214 38.7167C71.392 38.641 71.437 38.551 71.4566 38.4469C71.0929 37.8132 70.5972 37.2962 69.9693 36.8955C70.2845 36.6041 70.6225 36.3343 70.9834 36.0861C71.8006 36.6764 72.4766 37.396 73.0115 38.2445C72.9893 39.5035 72.3358 40.1781 71.051 40.268C70.6892 40.2226 70.3286 40.1776 69.9693 40.1331C70.0134 40.7245 69.9682 41.3091 69.8341 41.8868C69.4362 41.9872 69.0306 42.0547 68.6173 42.0892C69.5445 42.4331 69.8825 43.0852 69.6313 44.0453C69.3495 44.5627 69.0341 45.0574 68.6849 45.5292C68.2544 45.3263 67.8262 45.1239 67.4004 44.9221C67.6279 44.5161 67.8533 44.1114 68.0764 43.708C68.0414 43.5379 67.9512 43.403 67.806 43.3033C67.3771 43.067 66.9715 42.7972 66.5892 42.4939C66.4608 42.4107 66.3482 42.4331 66.2511 42.5614C66.1151 43.0126 65.9123 43.4173 65.6427 43.7755C65.247 43.6 64.8413 43.4651 64.4258 43.3708C64.6109 42.7756 64.8363 42.1909 65.1019 41.617C64.5717 41.274 64.0535 40.9142 63.547 40.5378C63.2353 41.051 62.8973 41.5455 62.533 42.0217C62.1188 41.816 61.7582 41.5462 61.4513 41.2123C61.6728 40.8341 61.9206 40.4743 62.1949 40.1331C62.2874 39.9599 62.2648 39.8025 62.1273 39.661C61.8795 39.5035 61.6315 39.3463 61.3837 39.1888C61.1975 39.4929 60.9947 39.7851 60.7753 40.0657C60.482 40.1236 60.2116 40.0561 59.964 39.8633C59.826 39.9311 59.8034 40.0209 59.8964 40.1331C60.2385 40.4789 60.5315 40.8612 60.7753 41.2798C63.3672 42.9099 65.9361 44.5738 68.482 46.2711C68.259 46.6506 67.9885 46.9879 67.6708 47.2829C66.0483 46.2486 64.4258 45.2145 62.8034 44.1802C62.7583 44.2251 62.7132 44.2701 62.6682 44.3151C62.8484 44.6748 63.0288 45.0345 63.209 45.3943C63.164 45.4392 63.1188 45.4843 63.0738 45.5292C62.533 45.3043 61.9921 45.0796 61.4513 44.8547C60.4366 43.1228 59.2649 41.504 57.9359 39.9982C58.2545 39.658 58.5475 39.2984 58.8148 38.919C59.0402 39.1439 59.2654 39.3686 59.4908 39.5935C59.5358 39.5486 59.581 39.5035 59.626 39.4586C60.1813 38.3052 60.7672 37.1811 61.3837 36.0861C61.7014 36.2215 62.017 36.3564 62.3301 36.4908C62.2939 36.9569 62.2037 37.4065 62.0597 37.8398C62.3861 38.0814 62.7241 38.3062 63.0738 38.5143C63.4492 38.0594 63.8097 37.5873 64.1554 37.0979C63.0474 36.5684 62.0108 35.9388 61.0457 35.2092C61.2339 34.765 61.5043 34.3828 61.8569 34.0626C62.2481 34.325 62.6537 34.5497 63.0738 34.7371ZM65.2371 37.8398C66.2652 38.4314 67.3243 38.971 68.4144 39.4586C68.6385 40.247 68.6611 41.034 68.482 41.8194C67.9445 41.6063 67.4262 41.3139 66.9272 40.9425C66.9667 40.5303 67.0793 40.1256 67.2652 39.7284C67.0403 39.3093 66.7023 38.9946 66.2511 38.7841C66.0349 39.2294 65.8321 39.6792 65.6427 40.1331C65.2821 39.9083 64.9216 39.6835 64.5611 39.4586C64.4146 39.3419 64.3922 39.207 64.4934 39.0539C64.7428 38.6454 64.9907 38.2407 65.2371 37.8398Z" fill="#015597"/>
<path opacity="0.917" fill-rule="evenodd" clip-rule="evenodd" d="M189.898 34.4673C190.033 34.4557 190.146 34.5008 190.236 34.6022C191.458 36.5248 192.698 38.4358 193.954 40.3355C193.628 40.5992 193.29 40.8467 192.94 41.0775C192.332 40.3145 191.791 39.5051 191.318 38.6492C191.003 38.8524 190.709 39.0773 190.439 39.3238C190.743 39.886 191.081 40.4256 191.453 40.9426C191.614 41.1509 191.658 41.3757 191.588 41.6171C191.314 41.8237 191.02 42.0036 190.709 42.1567C190.428 41.8204 190.181 41.4607 189.966 41.0775C189.853 41.5738 189.74 42.0683 189.628 42.5614C189.332 42.6613 189.061 42.7063 188.816 42.6963C188.98 42.9556 189.16 43.2028 189.357 43.4382C189.021 43.7188 188.66 43.9662 188.276 44.1802C186.934 42.1796 185.628 40.1561 184.355 38.1096C184.641 37.7518 185.002 37.5494 185.436 37.5026C185.972 38.2328 186.49 38.9748 186.991 39.7285C187.482 39.3835 187.955 39.0239 188.411 38.6492C188.054 38.0465 187.671 37.4618 187.262 36.8955C187.16 36.7424 187.183 36.6075 187.329 36.4908C187.64 36.3377 187.934 36.1579 188.208 35.9512C188.619 36.6148 189.048 37.2668 189.492 37.9073C189.763 37.8508 190.033 37.7383 190.304 37.57C190.45 37.4533 190.473 37.3184 190.371 37.1653C189.943 36.4908 189.515 35.8163 189.087 35.1418C189.367 34.9145 189.637 34.6896 189.898 34.4673ZM189.763 40.8077C189.638 40.5036 189.459 40.2338 189.222 39.9983C188.726 40.3355 188.231 40.6728 187.735 41.01C188 41.3807 188.247 41.763 188.478 42.1567C188.656 41.7209 188.791 41.2712 188.884 40.8077C189.159 40.7421 189.451 40.7421 189.763 40.8077Z" fill="#015597"/>
<path opacity="0.994" fill-rule="evenodd" clip-rule="evenodd" d="M127.567 115.273C127.434 117.331 127.389 119.399 127.432 121.478C127.239 123.97 126.788 126.399 126.08 128.763C126.08 128.628 126.08 128.493 126.08 128.358C116.564 126.655 107.415 123.799 98.6331 119.792C91.7068 116.641 85.6901 112.257 80.583 106.639C74.8668 99.8157 71.7796 91.9464 71.3214 83.0313C71.6253 72.747 74.5773 63.3039 80.1774 54.7021C81.5857 52.8466 83.0956 51.0705 84.7068 49.3735C85.5599 48.6333 86.4613 47.9588 87.411 47.3499C89.625 46.681 90.4137 47.4679 89.7771 49.7107C88.5018 52.3746 87.0596 54.9377 85.4505 57.4001C81.5728 65.0101 80.1305 73.0593 81.1239 81.5474C82.8538 91.9071 88.7353 98.6746 98.7683 101.85C101.508 102.702 104.302 103.242 107.151 103.469C101.747 101.135 96.7897 98.1224 92.2784 94.4305C90.4333 92.7704 88.7882 90.9492 87.3434 88.967C85.6204 86.4408 84.6064 83.6528 84.3012 80.6031C84.3462 80.4682 84.3914 80.3333 84.4364 80.1984C88.9519 83.7123 93.8644 86.6127 99.174 88.8995C104.315 91.0818 109.408 93.3751 114.452 95.7795C118.029 97.6841 121.071 100.225 123.579 103.401C125.14 105.754 126.222 108.317 126.824 111.091C127.055 112.509 127.303 113.903 127.567 115.273Z" fill="#015698"/>
<path opacity="0.993" fill-rule="evenodd" clip-rule="evenodd" d="M127.432 121.478C127.389 119.399 127.435 117.331 127.567 115.273C127.851 108.028 130.916 102.295 136.761 98.0729C138.86 96.6432 141.068 95.3842 143.387 94.2956C149.686 91.6456 155.905 88.8127 162.045 85.7969C165.045 84.1955 167.862 82.3294 170.496 80.1985C170.39 83.3484 169.444 86.2264 167.656 88.8321C164.715 92.8007 161.132 96.0608 156.907 98.6125C153.967 100.439 150.903 102.058 147.713 103.469C153.704 103.05 159.203 101.207 164.208 97.938C168.542 94.7351 171.449 90.5307 172.929 85.3247C175.13 75.7721 174.049 66.5988 169.684 57.8049C168.06 55.2845 166.573 52.6765 165.223 49.9806C164.918 49.2876 164.829 48.5682 164.952 47.8222C165.251 47.3128 165.702 47.043 166.304 47.0128C166.914 47.081 167.478 47.2834 167.994 47.6198C169.264 48.4811 170.413 49.4928 171.442 50.6551C175.417 55.1202 178.392 60.2015 180.366 65.8989C185.677 81.4034 184.549 96.4225 176.985 110.956C169.83 123.668 159.306 132.324 145.415 136.924C141.364 138.228 137.217 138.992 132.976 139.218C129.944 133.657 128.096 127.744 127.432 121.478Z" fill="#D21C4E"/>
<path opacity="0.957" fill-rule="evenodd" clip-rule="evenodd" d="M56.9896 50.2507C59.107 50.5627 59.8056 51.7318 59.0853 53.7581C57.8191 55.0089 56.5572 55.0089 55.2995 53.7581C54.6046 51.9529 55.1678 50.7837 56.9896 50.2507Z" fill="#005697"/>
<path opacity="0.959" fill-rule="evenodd" clip-rule="evenodd" d="M197.47 50.5203C199.322 50.6645 200.11 51.6537 199.836 53.4881C199.001 55.0543 197.806 55.3916 196.253 54.4999C195.139 53.2905 195.183 52.1213 196.388 50.9925C196.748 50.7931 197.107 50.6356 197.47 50.5203Z" fill="#005698"/>
<path opacity="0.987" fill-rule="evenodd" clip-rule="evenodd" d="M89.7099 56.5913C90.5011 56.5493 90.8617 56.9314 90.7915 57.738C90.2154 60.4196 89.607 63.0952 88.9662 65.7646C88.1525 70.3844 87.8145 75.016 87.9522 79.6594C86.433 78.5716 85.0133 77.3575 83.6932 76.0171C83.6792 69.3268 85.3918 63.1214 88.831 57.4007C89.1099 57.0994 89.4028 56.8296 89.7099 56.5913Z" fill="#C8CED3"/>
<path opacity="0.97" fill-rule="evenodd" clip-rule="evenodd" d="M164.479 56.5907C165.16 56.5253 165.68 56.7951 166.034 57.4001C169.505 63.1133 171.218 69.3188 171.172 76.0165C169.855 77.3313 168.457 78.5454 166.98 79.6588C167.102 74.5249 166.652 69.4436 165.628 64.415C165.154 62.3858 164.657 60.3623 164.141 58.3445C164.002 57.7019 164.114 57.1173 164.479 56.5907Z" fill="#D21B4E"/>
<path opacity="0.959" fill-rule="evenodd" clip-rule="evenodd" d="M50.3644 62.6614C53.969 63.3358 57.5746 64.0103 61.181 64.6849C60.8708 66.6762 60.4877 68.6548 60.0317 70.6206C58.9914 73.1408 57.1661 73.9727 54.5558 73.1162C53.0514 72.2979 52.2852 71.0164 52.2573 69.2715C52.4204 68.0984 52.6007 66.9293 52.7981 65.7641C51.8494 65.6468 50.9029 65.5119 49.9588 65.3594C50.0241 64.4494 50.1593 63.55 50.3644 62.6614ZM54.9614 66.3037C56.1815 66.4767 57.3984 66.679 58.612 66.9108C58.4272 67.787 58.2244 68.6638 58.0036 69.5413C57.6406 70.5317 56.9419 70.9138 55.9079 70.688C54.9819 70.4376 54.5311 69.8306 54.5558 68.8668C54.6739 68.0085 54.8091 67.1541 54.9614 66.3037Z" fill="#005698"/>
<path opacity="0.958" fill-rule="evenodd" clip-rule="evenodd" d="M204.23 62.7962C204.455 62.7962 204.68 62.7962 204.906 62.7962C205.081 63.6503 205.126 64.5047 205.041 65.3593C202.837 65.6623 200.628 65.9546 198.416 66.2362C200.867 67.5806 203.301 68.9521 205.717 70.3507C205.94 71.1895 206.075 72.0438 206.123 72.9138C202.477 73.3679 198.827 73.7726 195.171 74.1279C195.048 73.2775 194.957 72.4232 194.9 71.5648C197.164 71.3387 199.418 71.0464 201.661 70.6879C199.227 69.3389 196.793 67.9899 194.36 66.6409C194.185 65.8879 194.05 65.1235 193.954 64.3476C193.973 64.2434 194.019 64.1534 194.089 64.0778C197.494 63.6814 200.874 63.2542 204.23 62.7962Z" fill="#005698"/>
<path opacity="0.948" fill-rule="evenodd" clip-rule="evenodd" d="M96.0643 63.4711C97.2291 64.2547 98.0178 65.334 98.4304 66.7087C98.635 67.2838 98.4322 67.5985 97.822 67.653C97.4586 67.5849 97.1656 67.4051 96.9432 67.1134C96.6283 65.9018 96.3353 64.6876 96.0643 63.4711Z" fill="#009469"/>
<path opacity="0.948" fill-rule="evenodd" clip-rule="evenodd" d="M158.665 63.4711C158.749 63.5274 158.795 63.6173 158.801 63.7409C158.507 64.9108 158.215 66.0798 157.922 67.2483C157.544 67.54 157.139 67.63 156.705 67.5181C156.51 67.4221 156.397 67.2647 156.367 67.046C156.781 65.6112 157.546 64.4196 158.665 63.4711Z" fill="#019469"/>
<path opacity="0.966" fill-rule="evenodd" clip-rule="evenodd" d="M162.992 63.876C163.599 63.8305 163.983 64.1004 164.141 64.6854C164.906 68.6939 165.289 72.7409 165.29 76.8265C165.27 78.133 165.202 79.4371 165.087 80.7387C163.861 81.7443 162.532 82.5987 161.099 83.3018C161.054 83.2118 161.008 83.122 160.964 83.032C161.84 79.0327 162.29 74.9857 162.316 70.8909C162.195 68.9129 162.174 66.9345 162.248 64.9552C162.332 64.4684 162.581 64.1086 162.992 63.876Z" fill="#D21B4E"/>
<path opacity="0.987" fill-rule="evenodd" clip-rule="evenodd" d="M91.332 63.876C92.0066 63.8514 92.4346 64.1661 92.6165 64.8203C92.3879 69.8321 92.6132 74.8235 93.2925 79.7943C93.4444 80.861 93.6472 81.9176 93.9009 82.9645C93.8559 83.0768 93.8108 83.1893 93.7657 83.3017C92.3328 82.5986 91.0032 81.7443 89.7771 80.7386C89.422 75.3469 89.7375 69.9959 90.7236 64.6854C90.8323 64.3284 91.0351 64.0586 91.332 63.876Z" fill="#C8CED3"/>
<path opacity="0.92" fill-rule="evenodd" clip-rule="evenodd" d="M191.115 66.4385C192.982 66.4356 193.952 67.3799 194.022 69.2715C194.327 70.6953 193.854 71.752 192.602 72.4416C192.376 72.5316 192.152 72.5316 191.926 72.4416C191.819 71.9781 191.73 71.506 191.656 71.0252C191.925 70.7421 192.218 70.4723 192.535 70.2158C192.728 69.5066 192.57 68.8995 192.061 68.3946C191.841 68.328 191.615 68.3056 191.385 68.3271C191.295 67.6976 191.205 67.0681 191.115 66.4385Z" fill="#005697"/>
<path opacity="0.958" fill-rule="evenodd" clip-rule="evenodd" d="M159.611 70.4861C159.999 70.4301 160.292 70.565 160.49 70.8908C160.742 72.7295 160.742 74.5731 160.49 76.4218C160.167 79.1411 159.649 81.8167 158.935 84.4484C157.898 84.9655 156.863 85.4827 155.826 85.9997C155.781 85.9323 155.735 85.8648 155.69 85.7974C156.995 81.154 158.054 76.455 158.868 71.7002C158.981 71.2069 159.229 70.8022 159.611 70.4861Z" fill="#D11B4E"/>
<path opacity="0.982" fill-rule="evenodd" clip-rule="evenodd" d="M94.7124 70.4861C95.4304 70.5586 95.8586 70.9633 95.9969 71.7003C96.8318 76.45 97.8909 81.149 99.1742 85.7974C99.1292 85.8649 99.084 85.9323 99.039 85.9998C98.0024 85.4827 96.9659 84.9655 95.9293 84.4484C94.7265 80.148 94.1632 75.7637 94.2392 71.2956C94.3154 70.9735 94.4731 70.7037 94.7124 70.4861Z" fill="#C8CED3"/>
<path opacity="0.99" fill-rule="evenodd" clip-rule="evenodd" d="M98.2278 72.6439C99.3181 74.8785 100.986 76.5648 103.23 77.7027C107.346 79.6858 111.673 80.9899 116.21 81.6148C125.375 83.0327 134.479 82.718 143.522 80.6705C147.3 79.8651 150.769 78.3812 153.933 76.2187C154.451 75.7017 154.97 75.1845 155.488 74.6674C155.883 74.0143 156.244 73.3398 156.57 72.6439C155.468 77.4922 154.363 82.3486 153.257 87.2132C148.031 89.2355 142.938 91.5512 137.979 94.1606C134.57 96.1215 131.664 98.6622 129.258 101.783C128.604 102.727 128.018 103.717 127.5 104.75C124.805 99.9925 121.041 96.3276 116.21 93.7559C114.925 93.047 113.618 92.3725 112.289 91.7324C108.741 90.1984 105.204 88.6471 101.676 87.0783C100.547 82.2595 99.3978 77.448 98.2278 72.6439Z" fill="#D21B4E"/>
<path opacity="0.963" fill-rule="evenodd" clip-rule="evenodd" d="M52.7981 74.2635C57.1127 73.9588 59.4562 75.9599 59.8288 80.2666C59.2706 84.884 56.7016 86.7726 52.122 85.9325C49.3969 84.6107 48.1576 82.4298 48.4039 79.3898C48.7849 76.7399 50.2497 75.0311 52.7981 74.2635ZM53.7445 76.8266C55.9611 76.8964 57.223 78.0205 57.5303 80.1992C57.3314 82.3311 56.1596 83.4554 54.0149 83.5717C51.2086 83.085 50.1945 81.4662 50.9728 78.7153C51.5911 77.6317 52.5149 77.0021 53.7445 76.8266Z" fill="#005698"/>
<path opacity="0.954" fill-rule="evenodd" clip-rule="evenodd" d="M206.393 75.4774C206.582 76.4086 206.559 77.3529 206.325 78.3103C205.636 78.5975 204.938 78.8673 204.23 79.1197C203.992 80.7767 203.924 82.4404 204.027 84.1111C204.765 84.4341 205.486 84.7939 206.19 85.1903C206.205 86.0895 206.161 86.9889 206.055 87.8883C202.511 86.0864 198.928 84.3776 195.306 82.762C195.264 81.8283 195.309 80.9063 195.441 79.9966C199.122 78.5262 202.772 77.0198 206.393 75.4774ZM201.931 79.9291C202.004 79.9372 202.05 79.9821 202.066 80.064C201.958 81.0917 201.891 82.1259 201.864 83.1668C200.626 82.6052 199.387 82.0432 198.145 81.4805C199.422 80.9742 200.683 80.4571 201.931 79.9291Z" fill="#005698"/>
<path fill-rule="evenodd" clip-rule="evenodd" d="M71.3215 83.0316C71.7797 91.9467 74.8669 99.816 80.5832 106.639C85.6902 112.257 91.7069 116.641 98.6333 119.792C107.415 123.8 116.564 126.655 126.08 128.358C126.08 128.493 126.08 128.628 126.08 128.763C125.175 132.367 123.823 135.785 122.024 139.016C121.588 139.138 121.137 139.184 120.672 139.151C108.36 137.908 97.7235 133.096 88.7632 124.716C88.1693 123.988 87.4933 123.359 86.7351 122.827C86.6449 122.468 86.4196 122.243 86.059 122.153C75.9397 111.122 71.0271 98.0815 71.3215 83.0316Z" fill="#D11D4F"/>
<path opacity="0.955" fill-rule="evenodd" clip-rule="evenodd" d="M195.171 86.8088C195.901 86.9366 196.623 87.1166 197.334 87.3484C197.109 88.4276 196.884 89.5068 196.658 90.586C199.526 91.2122 202.41 91.7518 205.312 92.2048C205.227 93.1157 205.07 94.015 204.838 94.9028C201.945 94.3129 199.038 93.7733 196.118 93.284C195.972 94.4141 195.792 95.5384 195.577 96.6565C194.949 96.5358 194.318 96.4234 193.684 96.3193C193.546 96.2493 193.457 96.1368 193.413 95.982C194 92.9218 194.586 89.864 195.171 86.8088Z" fill="#005698"/>
<path opacity="0.956" fill-rule="evenodd" clip-rule="evenodd" d="M54.1503 87.7529C58.5301 87.4683 60.8736 89.5143 61.1811 93.8909C61.2342 95.261 60.8062 96.4527 59.8966 97.4658C59.2495 97.0452 58.6411 96.573 58.0713 96.0493C59.1608 94.4846 59.1383 92.9332 58.0037 91.3952C56.0996 89.9117 54.2968 90.0466 52.5955 91.7999C51.6233 93.8514 52.0514 95.5602 53.8799 96.9262C53.4743 97.5558 53.0687 98.1852 52.6631 98.8148C51.332 98.0495 50.4531 96.9254 50.0265 95.4423C49.2583 92.7065 49.9569 90.4356 52.1222 88.6298C52.7803 88.2556 53.4563 87.9632 54.1503 87.7529Z" fill="#005697"/>
<path opacity="0.961" fill-rule="evenodd" clip-rule="evenodd" d="M193.008 97.4661C196.529 98.5395 200.021 99.7087 203.486 100.974C203.366 101.606 203.186 102.235 202.945 102.862C202.875 103.095 202.74 103.274 202.54 103.402C200.448 102.646 198.352 101.949 196.253 101.311C197.791 103.548 199.346 105.774 200.917 107.988C200.881 108.777 200.7 109.541 200.377 110.282C200.324 110.407 200.235 110.497 200.106 110.552C196.714 109.408 193.334 108.239 189.966 107.044C190.044 106.135 190.314 105.281 190.777 104.481C192.847 105.289 194.943 105.986 197.064 106.572C195.525 104.334 193.97 102.108 192.399 99.8944C192.558 99.0831 192.76 98.2737 193.008 97.4661Z" fill="#005697"/>
<path opacity="0.954" fill-rule="evenodd" clip-rule="evenodd" d="M57.6655 98.8148C60.997 98.7006 63.1377 100.229 64.0878 103.401C64.3867 104.674 64.3415 105.933 63.9526 107.179C63.866 107.491 63.6857 107.716 63.4118 107.853C62.7496 107.512 62.0961 107.152 61.4513 106.774C62.4212 104.797 62.0155 103.156 60.2345 101.85C58.4534 101.165 56.9437 101.547 55.705 102.997C54.9101 104.251 54.9101 105.51 55.705 106.774C56.2294 107.342 56.7928 107.86 57.3951 108.325C57.165 109.032 56.8496 109.684 56.4487 110.281C54.6434 109.492 53.4941 108.143 53.0009 106.234C52.2789 102.306 53.8338 99.8331 57.6655 98.8148Z" fill="#005697"/>
<path opacity="0.953" fill-rule="evenodd" clip-rule="evenodd" d="M189.627 107.449C189.746 107.431 189.836 107.476 189.898 107.584C190.746 109.432 191.646 111.253 192.602 113.047C194.854 112.992 197.108 112.947 199.362 112.912C198.9 113.744 198.405 114.554 197.875 115.341C196.298 115.472 194.722 115.585 193.143 115.678C192.816 115.685 192.567 115.819 192.399 116.082C192.241 116.397 192.084 116.712 191.926 117.027C193.17 117.759 194.387 118.524 195.576 119.32C195.191 120.09 194.741 120.809 194.224 121.479C191.047 119.692 187.893 117.87 184.76 116.015C185.194 115.262 185.644 114.52 186.112 113.789C187.363 114.492 188.603 115.211 189.83 115.948C190.151 115.471 190.443 114.976 190.709 114.464C189.941 112.93 189.174 111.401 188.411 109.877C188.817 109.065 189.223 108.256 189.627 107.449Z" fill="#005698"/>
<path opacity="0.961" fill-rule="evenodd" clip-rule="evenodd" d="M65.2371 107.989C65.4422 107.99 65.6 108.08 65.7104 108.259C65.9718 108.833 66.2874 109.373 66.6568 109.877C66.7624 110.072 66.7398 110.252 66.5892 110.417C64.6741 111.485 62.7812 112.586 60.9105 113.722C63.7509 114.028 66.5903 114.343 69.4285 114.666C69.8342 115.341 70.2398 116.015 70.6454 116.69C67.5129 118.59 64.358 120.456 61.1809 122.288C60.6068 121.591 60.1788 120.827 59.8965 119.995C61.8236 118.797 63.7841 117.651 65.778 116.555C62.8828 116.291 59.9983 115.954 57.1247 115.543C56.746 114.9 56.3856 114.248 56.0431 113.587C59.09 111.685 62.1546 109.819 65.2371 107.989Z" fill="#005698"/>
<path fill-rule="evenodd" clip-rule="evenodd" d="M149.877 108.932C149.988 109.401 150.055 109.896 150.08 110.416C150.505 110.618 150.934 110.82 151.364 111.023C150.831 111.179 150.291 111.292 149.742 111.361C149.765 111.902 149.742 112.442 149.674 112.979C149.409 112.563 149.162 112.136 148.93 111.698C148.434 111.743 147.939 111.788 147.443 111.833C147.708 111.433 148.023 111.073 148.39 110.753C148.043 110.31 147.796 109.838 147.646 109.337C148.064 109.579 148.491 109.804 148.93 110.012C149.345 109.732 149.662 109.373 149.877 108.932Z" fill="#FDE406"/>
<path fill-rule="evenodd" clip-rule="evenodd" d="M137.437 110.687C137.573 110.683 137.662 110.75 137.708 110.889C138.164 112.409 138.658 113.915 139.195 115.408C140.906 115.521 142.619 115.588 144.333 115.611C143.004 116.577 141.674 117.544 140.344 118.511C140.254 118.691 140.254 118.871 140.344 119.051C140.881 120.522 141.333 122.006 141.697 123.502C140.34 122.487 138.967 121.498 137.573 120.534C136.179 121.498 134.805 122.487 133.449 123.502C133.813 122.007 134.263 120.523 134.801 119.051C134.891 118.871 134.891 118.691 134.801 118.511C133.471 117.544 132.142 116.577 130.812 115.611C132.527 115.588 134.239 115.521 135.95 115.408C136.529 113.857 137.024 112.284 137.437 110.687Z" fill="#FEEA02"/>
<path fill-rule="evenodd" clip-rule="evenodd" d="M152.986 113.789C153.345 114.101 153.704 114.415 154.068 114.733C154.507 114.525 154.935 114.301 155.352 114.059C155.197 114.505 154.994 114.955 154.744 115.408C155.079 115.81 155.44 116.192 155.826 116.554C155.317 116.601 154.822 116.534 154.338 116.352C154.014 116.774 153.721 117.223 153.46 117.701C153.445 117.179 153.332 116.684 153.122 116.217C151.372 116.021 151.372 115.707 153.122 115.273C153.092 114.776 153.046 114.282 152.986 113.789Z" fill="#FDE207"/>
<path opacity="0.957" fill-rule="evenodd" clip-rule="evenodd" d="M70.1049 119.725C71.4261 119.662 72.5979 120.045 73.6202 120.872C74.9078 122.403 76.1697 123.955 77.406 125.526C74.606 127.892 71.7442 130.185 68.8204 132.406C68.2487 131.791 67.7305 131.139 67.2655 130.45C67.8982 129.729 68.6192 129.1 69.4288 128.561C68.9782 128.021 68.5274 127.482 68.0768 126.942C67.919 126.92 67.7613 126.897 67.6035 126.875C66.5908 127.013 65.5768 127.081 64.5614 127.077C63.995 126.445 63.4542 125.793 62.9389 125.121C63.0573 125.02 63.1926 124.952 63.3445 124.919C64.5223 124.864 65.6941 124.751 66.8599 124.581C66.5877 122.065 67.6694 120.446 70.1049 119.725ZM70.7809 122.288C71.2718 122.242 71.7225 122.355 72.133 122.625C72.8121 123.33 73.443 124.072 74.0259 124.851C73.1042 125.648 72.1577 126.412 71.1865 127.145C70.2405 126.335 69.5644 125.346 69.1584 124.177C69.3661 123.251 69.9069 122.621 70.7809 122.288Z" fill="#005697"/>
<path fill-rule="evenodd" clip-rule="evenodd" d="M154.339 121.748C154.789 121.838 155.24 121.928 155.691 122.018C155.315 122.25 154.998 122.542 154.744 122.895C154.971 123.302 155.084 123.729 155.082 124.176C154.728 123.898 154.344 123.674 153.933 123.502C153.534 123.741 153.151 124.011 152.784 124.311C152.794 123.884 152.862 123.457 152.986 123.03C152.676 122.58 152.27 122.22 151.77 121.951C152.309 121.883 152.85 121.861 153.392 121.883C153.579 120.177 153.895 120.132 154.339 121.748Z" fill="#FDE306"/>
<path fill-rule="evenodd" clip-rule="evenodd" d="M154.338 121.748C154.881 121.725 155.421 121.748 155.961 121.815C155.888 121.912 155.797 121.979 155.691 122.018C155.24 121.928 154.789 121.838 154.338 121.748Z" fill="#EC9324"/>
<path opacity="0.847" fill-rule="evenodd" clip-rule="evenodd" d="M86.0592 122.153C86.4198 122.243 86.6451 122.467 86.7353 122.827C86.4649 122.647 86.2395 122.423 86.0592 122.153Z" fill="#743368"/>
<path opacity="0.949" fill-rule="evenodd" clip-rule="evenodd" d="M86.7352 122.828C87.4935 123.359 88.1695 123.989 88.7633 124.716C88.0051 124.185 87.329 123.555 86.7352 122.828Z" fill="#853266"/>
<path opacity="0.955" fill-rule="evenodd" clip-rule="evenodd" d="M185.03 124.311C186.94 124.521 187.637 125.555 187.126 127.414C186.297 128.427 185.283 128.63 184.084 128.021C182.975 126.857 183.02 125.733 184.219 124.649C184.504 124.535 184.775 124.422 185.03 124.311Z" fill="#005698"/>
<path fill-rule="evenodd" clip-rule="evenodd" d="M149.877 125.256C150.009 125.768 150.055 126.308 150.012 126.875C151.605 127.193 151.56 127.463 149.877 127.684C149.9 128.226 149.877 128.765 149.809 129.303C149.535 128.962 149.287 128.602 149.066 128.224C148.93 128.179 148.795 128.134 148.66 128.089C148.253 128.203 147.847 128.271 147.443 128.291C147.742 127.897 148.058 127.514 148.39 127.144C148.103 126.774 147.832 126.392 147.578 125.998C148.011 126.042 148.44 126.155 148.863 126.335C149.293 126.062 149.631 125.702 149.877 125.256Z" fill="#FDE306"/>
<path opacity="0.959" fill-rule="evenodd" clip-rule="evenodd" d="M175.16 127.819C175.485 127.805 175.734 127.939 175.904 128.224C178.119 130.867 180.35 133.497 182.597 136.115C181.941 136.704 181.265 137.265 180.569 137.802C179.579 136.701 178.609 135.577 177.662 134.429C176.429 135.438 175.235 136.495 174.079 137.599C175.025 138.723 175.972 139.848 176.918 140.972C176.262 141.56 175.586 142.121 174.89 142.658C172.502 139.875 170.114 137.088 167.724 134.294C168.32 133.676 168.973 133.137 169.684 132.675C170.659 133.67 171.606 134.705 172.524 135.778C173.582 134.901 174.642 134.024 175.701 133.148C175.949 132.997 176.061 132.795 176.039 132.541C175.097 131.556 174.218 130.522 173.403 129.438C173.995 128.891 174.58 128.352 175.16 127.819Z" fill="#005597"/>
<path opacity="0.949" fill-rule="evenodd" clip-rule="evenodd" d="M78.2171 133.485C80.2896 133.708 80.943 134.788 80.1776 136.723C79.4078 137.555 78.4839 137.757 77.4059 137.33C76.144 136.16 76.144 134.992 77.4059 133.822C77.6913 133.708 77.9617 133.596 78.2171 133.485Z" fill="#005697"/>
<path opacity="0.955" fill-rule="evenodd" clip-rule="evenodd" d="M87.952 134.834C88.0943 134.814 88.2295 134.836 88.3577 134.901C90.9539 136.578 93.5228 138.287 96.0644 140.028C95.6991 140.644 95.3161 141.251 94.9152 141.849C93.9687 141.219 93.0223 140.59 92.0758 139.96C90.4649 142.321 88.8874 144.703 87.3436 147.11C87.2678 147.18 87.1776 147.226 87.0732 147.245C86.339 146.828 85.6405 146.356 84.9775 145.828C86.5717 143.434 88.1492 141.029 89.7097 138.611C88.8041 137.888 87.8577 137.214 86.8704 136.588C87.2664 136.022 87.6269 135.437 87.952 134.834Z" fill="#005697"/>
<path opacity="0.957" fill-rule="evenodd" clip-rule="evenodd" d="M162.857 137.262C166.215 139.5 169.505 141.838 172.727 144.277C171.978 144.821 171.188 145.314 170.361 145.761C169.759 145.161 169.083 144.665 168.332 144.277C166.903 145.09 165.484 145.923 164.073 146.773C164.23 147.528 164.366 148.293 164.479 149.066C163.763 149.604 162.996 150.076 162.181 150.482C161.676 146.692 161.225 142.892 160.829 139.083C160.873 138.881 160.919 138.679 160.964 138.476C161.603 138.069 162.235 137.664 162.857 137.262ZM163.262 140.365C164.406 141.168 165.532 142 166.642 142.861C165.719 143.343 164.817 143.86 163.938 144.412C163.638 143.076 163.412 141.727 163.262 140.365Z" fill="#005698"/>
<path opacity="0.859" fill-rule="evenodd" clip-rule="evenodd" d="M122.024 139.015C121.863 139.188 121.638 139.277 121.348 139.285C121.095 139.284 120.87 139.239 120.672 139.15C121.137 139.184 121.588 139.138 122.024 139.015Z" fill="#852F68"/>
<path opacity="0.953" fill-rule="evenodd" clip-rule="evenodd" d="M156.637 140.77C156.837 140.735 157.017 140.779 157.178 140.905C157.423 141.459 157.647 142.022 157.854 142.591C156.817 143.109 155.78 143.626 154.744 144.142C155.793 146.767 156.83 149.398 157.854 152.034C157.835 152.138 157.789 152.228 157.719 152.304C156.982 152.559 156.261 152.852 155.555 153.181C154.422 150.554 153.341 147.901 152.31 145.221C152.145 145.072 151.964 145.049 151.77 145.154C150.899 145.51 150.02 145.847 149.133 146.166C148.738 145.619 148.446 145.012 148.254 144.345C148.381 144.145 148.562 144.01 148.795 143.94C151.437 142.913 154.05 141.857 156.637 140.77Z" fill="#005697"/>
<path opacity="0.95" fill-rule="evenodd" clip-rule="evenodd" d="M99.8502 141.578C100.732 141.759 101.565 142.074 102.352 142.523C102.419 146.524 102.442 150.526 102.419 154.529C101.56 154.235 100.726 153.876 99.9178 153.45C99.895 152.592 99.8274 151.738 99.715 150.887C98.5883 150.37 97.4615 149.852 96.3348 149.335C95.9848 149.159 95.6242 149.068 95.2532 149.065C94.7226 149.686 94.1142 150.203 93.4279 150.617C92.6111 150.285 91.8223 149.903 91.0618 149.47C94.058 146.907 96.9875 144.276 99.8502 141.578ZM99.9854 144.546C100.075 144.766 100.12 145.014 100.121 145.288C100.033 146.434 99.9651 147.58 99.9178 148.728C98.9835 148.295 98.0597 147.846 97.1461 147.379C98.1232 146.465 99.0697 145.52 99.9854 144.546Z" fill="#005698"/>
<path opacity="0.954" fill-rule="evenodd" clip-rule="evenodd" d="M105.935 144.007C109.034 144.769 112.144 145.511 115.264 146.233C115.097 146.833 114.939 147.44 114.791 148.054C114.738 148.179 114.648 148.268 114.52 148.324C113.574 148.098 112.628 147.874 111.681 147.649C111.531 147.661 111.396 147.706 111.275 147.784C110.643 150.533 109.989 153.276 109.315 156.013C109.247 156.057 109.18 156.103 109.112 156.148C108.334 155.914 107.545 155.735 106.746 155.608C107.379 152.74 108.055 149.884 108.774 147.042C107.67 146.738 106.566 146.446 105.461 146.165C105.532 145.431 105.69 144.712 105.935 144.007Z" fill="#005697"/>
<path opacity="0.956" fill-rule="evenodd" clip-rule="evenodd" d="M144.063 144.951C145.757 144.679 147.29 145.038 148.66 146.03C148.257 146.701 147.807 147.331 147.308 147.919C145.63 146.921 144.052 147.056 142.575 148.324C141.333 150.235 141.557 151.966 143.251 153.517C145.355 154.459 147.067 153.987 148.389 152.101C149.076 152.407 149.708 152.789 150.282 153.248C149.532 154.703 148.36 155.648 146.767 156.081C144.279 156.793 142.139 156.23 140.345 154.394C138.569 151.818 138.637 149.299 140.547 146.84C141.537 145.852 142.708 145.222 144.063 144.951Z" fill="#005698"/>
<path opacity="0.956" fill-rule="evenodd" clip-rule="evenodd" d="M119.32 146.84C120.219 146.914 121.121 146.96 122.024 146.975C123.331 150.752 124.638 154.53 125.945 158.307C125.037 158.326 124.136 158.258 123.241 158.104C122.958 157.369 122.688 156.627 122.43 155.879C120.827 155.668 119.227 155.487 117.63 155.339C117.212 156.036 116.829 156.757 116.481 157.497C115.534 157.597 114.588 157.553 113.641 157.362C115.536 153.851 117.429 150.344 119.32 146.84ZM120.266 149.808C120.401 149.804 120.491 149.871 120.537 150.01C120.979 151.243 121.362 152.48 121.686 153.72C120.636 153.588 119.577 153.475 118.509 153.383C119.15 152.215 119.736 151.023 120.266 149.808Z" fill="#005697"/>
<path opacity="0.957" fill-rule="evenodd" clip-rule="evenodd" d="M132.706 146.975C136.944 147.121 138.41 149.189 137.1 153.18C136.209 154.265 135.06 154.872 133.652 155.002C132.795 155.066 131.938 155.134 131.083 155.204C131.167 156.191 131.212 157.18 131.218 158.172C130.403 158.241 129.592 158.331 128.785 158.442C128.345 154.768 128.03 151.081 127.838 147.38C129.486 147.312 131.109 147.177 132.706 146.975ZM131.354 149.268C132.166 149.245 132.977 149.268 133.787 149.336C134.975 149.968 135.268 150.89 134.666 152.101C134.24 152.529 133.721 152.776 133.111 152.843C132.476 152.881 131.845 152.948 131.218 153.046C131.128 153.001 131.038 152.955 130.948 152.911C130.782 151.75 130.692 150.581 130.678 149.403C130.936 149.441 131.162 149.396 131.354 149.268Z" fill="#005698"/>
<path opacity="0.913" fill-rule="evenodd" clip-rule="evenodd" d="M199.633 174.495C199.967 174.907 200.147 175.402 200.174 175.979C202.111 175.979 204.05 175.979 205.988 175.979C205.988 176.428 205.988 176.879 205.988 177.328C204.54 177.278 203.458 177.323 202.743 177.463C202.598 177.998 202.328 178.471 201.932 178.879C203.012 178.947 204.093 178.97 205.176 178.947C205.199 181.556 205.176 184.163 205.109 186.771C205.021 187.466 204.637 187.893 203.96 188.053C203.058 188.143 202.157 188.143 201.255 188.053C201.146 187.621 201.011 187.195 200.85 186.771C199.321 186.636 197.787 186.592 196.253 186.636C196.276 185.376 196.253 184.118 196.185 182.859C195.87 183.084 195.554 183.308 195.239 183.533C195.027 183.334 194.845 183.109 194.698 182.859C194.63 184.702 194.607 186.546 194.63 188.39C194.09 188.39 193.549 188.39 193.008 188.39C193.008 185.243 193.008 182.094 193.008 178.947C194.045 178.97 195.082 178.947 196.118 178.879C195.831 178.464 195.561 178.036 195.306 177.598C195.52 177.49 195.744 177.422 195.982 177.395C194.721 177.328 193.459 177.305 192.197 177.328C192.197 176.879 192.197 176.428 192.197 175.979C194.225 175.979 196.253 175.979 198.281 175.979C198.167 175.574 198.1 175.17 198.078 174.765C198.611 174.679 199.129 174.59 199.633 174.495ZM197.064 177.328C198.418 177.305 199.77 177.328 201.12 177.395C200.759 177.891 200.4 178.384 200.039 178.879C199.359 178.991 198.683 178.968 198.011 178.812C197.659 178.333 197.343 177.838 197.064 177.328ZM194.63 180.296C195.488 180.273 196.345 180.296 197.199 180.363C196.402 181.02 195.567 181.627 194.698 182.184C194.63 181.557 194.607 180.927 194.63 180.296ZM197.74 180.431C198.572 180.276 199.429 180.253 200.309 180.363C199.978 180.598 199.775 180.891 199.701 181.24C200.252 181.639 200.816 182.021 201.391 182.387C199.903 182.477 198.416 182.477 196.929 182.387C197.508 182.033 198.048 181.629 198.551 181.173C198.299 180.897 198.028 180.651 197.74 180.431ZM200.85 180.431C201.726 180.297 202.628 180.253 203.554 180.296C203.577 180.883 203.554 181.467 203.486 182.05C202.656 181.422 201.777 180.883 200.85 180.431ZM203.419 182.724C203.576 183.869 203.597 185.039 203.486 186.231C203.436 186.356 203.369 186.468 203.284 186.569C202.835 186.636 202.384 186.659 201.932 186.636C201.887 185.374 201.932 184.115 202.067 182.859C202.351 183.057 202.644 183.237 202.946 183.399C203.17 183.22 203.328 182.997 203.419 182.724ZM197.74 183.668C198.642 183.668 199.542 183.668 200.444 183.668C200.444 184.208 200.444 184.748 200.444 185.287C199.542 185.287 198.642 185.287 197.74 185.287C197.74 184.748 197.74 184.208 197.74 183.668Z" fill="#005698"/>
<path opacity="0.933" fill-rule="evenodd" clip-rule="evenodd" d="M245.738 185.557C244.137 186.09 242.515 186.539 240.871 186.906C240.775 186.362 240.707 185.823 240.668 185.287C241.209 185.108 241.75 184.927 242.29 184.747C242.358 183.084 242.381 181.421 242.358 179.756C241.862 179.756 241.367 179.756 240.871 179.756C240.871 179.217 240.871 178.677 240.871 178.137C241.367 178.137 241.862 178.137 242.358 178.137C242.358 176.968 242.358 175.799 242.358 174.63C242.899 174.63 243.44 174.63 243.98 174.63C243.98 175.799 243.98 176.968 243.98 178.137C244.469 178.098 244.942 178.143 245.4 178.272C245.468 178.765 245.491 179.26 245.468 179.756C248.487 179.756 251.507 179.756 254.527 179.756C254.527 180.296 254.527 180.835 254.527 181.375C253.081 181.33 251.64 181.375 250.2 181.51C249.35 183.005 248.448 184.467 247.496 185.894C248.859 186.018 250.211 185.951 251.552 185.692C251.163 184.892 250.757 184.105 250.335 183.331C250.692 183.018 251.098 182.77 251.552 182.589C251.967 183.1 252.35 183.64 252.701 184.208C253.362 185.279 253.971 186.381 254.527 187.513C254.079 187.872 253.584 188.165 253.039 188.39C252.846 188.061 252.666 187.723 252.498 187.378C250.327 187.311 248.164 187.424 246.009 187.715C245.461 187.44 245.1 186.991 244.927 186.366C245.201 186.095 245.472 185.825 245.738 185.557ZM245.738 185.557C245.675 184.97 245.584 184.386 245.468 183.803C244.986 183.97 244.513 184.15 244.048 184.343C243.98 182.814 243.957 181.286 243.98 179.756C244.386 179.756 244.792 179.756 245.197 179.756C245.197 180.296 245.197 180.835 245.197 181.375C246.19 181.352 247.181 181.375 248.172 181.442C247.511 182.922 246.699 184.294 245.738 185.557Z" fill="#005697"/>
<path opacity="0.933" fill-rule="evenodd" clip-rule="evenodd" d="M212.477 174.765C213.063 174.765 213.65 174.765 214.235 174.765C214.235 178.542 214.235 182.319 214.235 186.096C214.911 186.096 215.587 186.096 216.263 186.096C216.263 182.319 216.263 178.542 216.263 174.765C216.804 174.765 217.345 174.765 217.886 174.765C217.886 178.542 217.886 182.319 217.886 186.096C219.282 186.096 220.68 186.096 222.077 186.096C222.077 186.636 222.077 187.176 222.077 187.715C217.525 187.715 212.974 187.715 208.421 187.715C208.421 187.176 208.421 186.636 208.421 186.096C209.773 186.096 211.125 186.096 212.477 186.096C212.477 182.319 212.477 178.542 212.477 174.765Z" fill="#005698"/>
<path opacity="0.907" fill-rule="evenodd" clip-rule="evenodd" d="M226.133 174.764C226.458 174.749 226.707 174.884 226.877 175.169C227.395 175.843 227.914 176.518 228.432 177.192C228.047 177.598 227.618 177.958 227.148 178.271C226.449 177.395 225.751 176.518 225.052 175.641C225.439 175.367 225.798 175.074 226.133 174.764Z" fill="#015597"/>
<path opacity="0.907" fill-rule="evenodd" clip-rule="evenodd" d="M245.874 175.439C248.533 175.439 251.191 175.439 253.851 175.439C253.851 175.978 253.851 176.518 253.851 177.058C251.191 177.058 248.533 177.058 245.874 177.058C245.874 176.518 245.874 175.978 245.874 175.439Z" fill="#005698"/>
<path opacity="0.961" fill-rule="evenodd" clip-rule="evenodd" d="M105.123 175.573C106.025 175.573 106.926 175.573 107.827 175.573C107.827 175.978 107.827 176.383 107.827 176.788C110.257 176.751 112.172 177.695 113.574 179.621C114.389 181.564 114.254 183.453 113.168 185.286C111.709 186.766 109.929 187.485 107.827 187.445C107.827 187.894 107.827 188.345 107.827 188.794C106.926 188.794 106.025 188.794 105.123 188.794C105.123 188.345 105.123 187.894 105.123 187.445C102.951 187.473 101.125 186.708 99.6474 185.151C98.6456 183.425 98.5104 181.627 99.2418 179.755C99.953 178.489 101.012 177.658 102.419 177.26C103.305 177.009 104.206 176.851 105.123 176.788C105.123 176.383 105.123 175.978 105.123 175.573ZM104.853 179.081C105.121 181.055 105.211 183.078 105.123 185.151C104.195 185.06 103.339 184.768 102.554 184.275C101.616 183.336 101.368 182.234 101.811 180.97C102.104 180.318 102.577 179.846 103.23 179.553C103.788 179.393 104.329 179.235 104.853 179.081ZM107.827 179.081C109.825 179.165 110.997 180.176 111.343 182.116C111.277 183.284 110.736 184.138 109.72 184.679C109.107 184.914 108.476 185.072 107.827 185.151C107.827 183.128 107.827 181.104 107.827 179.081Z" fill="#005698"/>
<path opacity="0.958" fill-rule="evenodd" clip-rule="evenodd" d="M33.5988 175.844C35.3347 175.667 37.0024 175.915 38.6014 176.586C40.3217 177.673 40.7499 179.134 39.8859 180.97C39.5647 181.313 39.2266 181.628 38.8719 181.914C40.5098 182.753 41.1182 184.058 40.6971 185.826C39.9512 187.268 38.7568 188.101 37.1142 188.322C35.0089 188.647 32.9808 188.377 31.0299 187.513C30.7861 187.426 30.6059 187.27 30.489 187.04C30.7951 186.371 31.0881 185.697 31.3679 185.017C33.2627 186.155 35.2232 186.312 37.2494 185.489C37.9787 184.939 38.0687 184.309 37.5198 183.6C37.22 183.428 36.9045 183.293 36.5733 183.196C35.3123 183.128 34.0502 183.105 32.7876 183.128C32.7876 182.363 32.7876 181.6 32.7876 180.835C34.0052 180.858 35.2221 180.835 36.4381 180.768C37.5814 180.189 37.6716 179.47 36.7085 178.609C35.0225 178.071 33.4 178.229 31.8411 179.081C31.7619 179.053 31.6943 179.008 31.6383 178.946C31.3268 178.239 31.1015 177.52 30.9623 176.788C31.8111 176.348 32.6899 176.034 33.5988 175.844Z" fill="#005697"/>
<path opacity="0.96" fill-rule="evenodd" clip-rule="evenodd" d="M80.6507 175.844C83.0162 175.618 84.9993 176.36 86.5998 178.07C86.0293 178.706 85.3982 179.269 84.7069 179.756C83.1345 178.26 81.3768 178.013 79.4339 179.014C77.325 181.036 77.28 183.104 79.2987 185.219C81.3012 186.382 83.1041 186.135 84.7069 184.477C85.3379 185.061 85.9688 185.647 86.5998 186.231C85.2543 187.774 83.5416 188.539 81.462 188.524C77.4352 188.284 75.2269 186.17 74.8368 182.184C75.1393 178.555 77.0772 176.443 80.6507 175.844Z" fill="#005697"/>
<path opacity="0.963" fill-rule="evenodd" clip-rule="evenodd" d="M123.376 175.844C126.177 175.597 128.408 176.586 130.069 178.812C131.348 181.328 131.213 183.756 129.663 186.096C127.289 188.459 124.517 189.066 121.348 187.918C118.001 186.13 116.896 183.409 118.036 179.756C119.116 177.486 120.896 176.181 123.376 175.844ZM123.376 178.407C126.906 178.353 128.37 180.062 127.771 183.533C126.702 185.696 125.012 186.392 122.7 185.624C120.545 184.229 120.027 182.364 121.145 180.026C121.721 179.249 122.465 178.709 123.376 178.407Z" fill="#005698"/>
<path opacity="0.965" fill-rule="evenodd" clip-rule="evenodd" d="M-0.0675507 176.114C3.22248 176.114 6.51252 176.114 9.80254 176.114C9.80254 176.878 9.80254 177.642 9.80254 178.407C7.45897 178.407 5.11537 178.407 2.77179 178.407C2.77179 179.216 2.77179 180.026 2.77179 180.835C4.3949 180.812 6.01738 180.835 7.63924 180.903C10.3033 181.608 11.2272 183.294 10.411 185.961C9.83836 187.116 8.91445 187.814 7.63924 188.052C5.07661 188.247 2.50768 188.314 -0.0675507 188.255C-0.0675507 184.208 -0.0675507 180.161 -0.0675507 176.114ZM2.77179 182.994C4.03453 182.971 5.29645 182.994 6.55758 183.061C7.58103 183.409 7.91905 184.106 7.57163 185.152C7.34684 185.478 7.05389 185.725 6.69279 185.894C5.39353 186.077 4.08653 186.145 2.77179 186.096C2.77179 185.062 2.77179 184.028 2.77179 182.994Z" fill="#005698"/>
<path opacity="0.971" fill-rule="evenodd" clip-rule="evenodd" d="M15.0756 176.114C16.0221 176.114 16.9685 176.114 17.915 176.114C17.8924 178.632 17.915 181.151 17.9826 183.668C19.834 181.214 21.6593 178.74 23.4585 176.248C24.4006 176.114 25.347 176.069 26.2978 176.114C26.2978 180.161 26.2978 184.208 26.2978 188.255C25.3514 188.255 24.4049 188.255 23.4585 188.255C23.481 185.736 23.4585 183.217 23.3909 180.7C21.5395 183.154 19.7142 185.628 17.915 188.12C16.9729 188.255 16.0264 188.299 15.0756 188.255C15.0756 184.208 15.0756 180.161 15.0756 176.114Z" fill="#005698"/>
<path opacity="0.978" fill-rule="evenodd" clip-rule="evenodd" d="M45.2265 176.114C46.2179 176.114 47.2095 176.114 48.201 176.114C48.201 177.688 48.201 179.261 48.201 180.835C50.0037 180.835 51.8066 180.835 53.6093 180.835C53.6093 179.261 53.6093 177.688 53.6093 176.114C54.5557 176.114 55.5022 176.114 56.4486 176.114C56.4486 180.161 56.4486 184.208 56.4486 188.255C55.5022 188.255 54.5557 188.255 53.6093 188.255C53.6093 186.591 53.6093 184.927 53.6093 183.263C51.8066 183.263 50.0037 183.263 48.201 183.263C48.201 184.927 48.201 186.591 48.201 188.255C47.2095 188.255 46.2179 188.255 45.2265 188.255C45.2265 184.208 45.2265 180.161 45.2265 176.114Z" fill="#005698"/>
<path opacity="0.969" fill-rule="evenodd" clip-rule="evenodd" d="M61.722 176.114C64.8318 176.114 67.9416 176.114 71.0513 176.114C71.0513 176.878 71.0513 177.642 71.0513 178.407C68.933 178.407 66.8149 178.407 64.6966 178.407C64.6966 179.261 64.6966 180.116 64.6966 180.97C66.5445 180.97 68.3922 180.97 70.2401 180.97C70.2401 181.735 70.2401 182.498 70.2401 183.263C68.3922 183.263 66.5445 183.263 64.6966 183.263C64.6966 184.117 64.6966 184.973 64.6966 185.826C66.8603 185.804 69.0236 185.826 71.1865 185.894C71.3183 186.668 71.3634 187.455 71.3217 188.255C68.1218 188.255 64.922 188.255 61.722 188.255C61.722 184.208 61.722 180.161 61.722 176.114Z" fill="#005698"/>
<path opacity="0.976" fill-rule="evenodd" clip-rule="evenodd" d="M135.41 176.113C137.85 176.055 140.284 176.123 142.711 176.316C145.441 177.288 146.455 179.2 145.753 182.049C145.081 183.633 143.887 184.556 142.17 184.815C140.864 184.882 139.556 184.905 138.249 184.882C138.249 186.006 138.249 187.131 138.249 188.255C137.302 188.255 136.356 188.255 135.41 188.255C135.41 184.208 135.41 180.16 135.41 176.113ZM138.249 178.542C139.477 178.486 140.693 178.554 141.9 178.744C142.966 179.404 143.26 180.325 142.778 181.509C142.473 181.905 142.089 182.197 141.629 182.386C140.508 182.554 139.382 182.621 138.249 182.589C138.249 181.24 138.249 179.891 138.249 178.542Z" fill="#005698"/>
<path opacity="0.959" fill-rule="evenodd" clip-rule="evenodd" d="M148.525 176.114C149.566 176.069 150.602 176.114 151.635 176.248C152.649 178.272 153.663 180.295 154.677 182.319C155.804 180.339 156.864 178.315 157.854 176.248C158.845 176.069 159.838 176.069 160.829 176.248C159.003 179.621 157.178 182.993 155.353 186.366C153.906 188.391 152.013 188.976 149.674 188.12C149.748 187.332 149.951 186.567 150.283 185.826C151.513 186.384 152.459 186.091 153.122 184.95C151.567 182.003 150.035 179.058 148.525 176.114Z" fill="#005698"/>
<path opacity="0.966" fill-rule="evenodd" clip-rule="evenodd" d="M164.479 176.114C165.325 176.072 166.158 176.116 166.98 176.249C168.389 178.654 169.831 181.038 171.307 183.398C172.789 181.004 174.253 178.599 175.701 176.181C176.511 176.114 177.322 176.091 178.135 176.114C178.135 180.161 178.135 184.208 178.135 188.255C177.233 188.255 176.333 188.255 175.431 188.255C175.454 185.916 175.431 183.578 175.363 181.24C174.315 183.106 173.234 184.95 172.118 186.771C171.494 187.168 170.907 187.123 170.361 186.636C169.324 184.927 168.288 183.219 167.251 181.51C167.183 183.757 167.16 186.006 167.183 188.255C166.281 188.255 165.381 188.255 164.479 188.255C164.479 184.208 164.479 180.161 164.479 176.114Z" fill="#005698"/>
<path opacity="0.926" fill-rule="evenodd" clip-rule="evenodd" d="M209.773 177.328C210.099 177.279 210.302 177.414 210.382 177.732C211.104 179.601 211.757 181.489 212.342 183.398C211.802 183.533 211.261 183.668 210.72 183.803C210.099 181.809 209.423 179.83 208.692 177.867C209.05 177.66 209.41 177.48 209.773 177.328Z" fill="#005597"/>
<path opacity="0.926" fill-rule="evenodd" clip-rule="evenodd" d="M220.319 177.328C220.905 177.418 221.446 177.62 221.942 177.935C221.109 179.867 220.342 181.823 219.643 183.803C219.015 183.737 218.474 183.489 218.021 183.061C218.828 181.162 219.593 179.251 220.319 177.328Z" fill="#015596"/>
<path opacity="0.923" fill-rule="evenodd" clip-rule="evenodd" d="M224.511 179.352C225.548 179.352 226.584 179.352 227.621 179.352C227.576 181.332 227.621 183.311 227.756 185.287C228.197 184.866 228.693 184.552 229.243 184.343C229.357 184.882 229.424 185.422 229.446 185.962C228.416 186.674 227.425 187.439 226.471 188.255C226.101 187.83 225.763 187.379 225.457 186.906C225.686 186.629 225.844 186.314 225.931 185.962C225.998 184.254 226.021 182.545 225.998 180.835C225.502 180.835 225.007 180.835 224.511 180.835C224.511 180.34 224.511 179.847 224.511 179.352Z" fill="#005697"/>
<path opacity="0.932" fill-rule="evenodd" clip-rule="evenodd" d="M232.894 174.495C233.431 174.585 233.971 174.674 234.516 174.765C234.561 174.809 234.607 174.855 234.651 174.9C234.432 175.085 234.365 175.31 234.449 175.574C235.536 177.095 236.911 178.287 238.572 179.149C238.307 179.7 237.992 180.218 237.626 180.701C235.971 179.685 234.597 178.382 233.502 176.788C232.579 178.07 231.474 179.172 230.19 180.093C230.683 180.161 231.179 180.184 231.677 180.161C231.654 180.927 231.677 181.691 231.745 182.454C233.198 181.857 234.55 181.092 235.801 180.161C236.139 180.589 236.477 181.015 236.815 181.442C235.25 182.515 233.583 183.415 231.812 184.141C231.611 184.874 231.655 185.593 231.947 186.299C232.541 186.449 233.149 186.516 233.773 186.501C234.343 186.497 234.906 186.453 235.463 186.366C235.76 186.124 235.918 185.809 235.936 185.422C236.048 184.796 236.116 184.167 236.139 183.533C236.68 183.668 237.22 183.803 237.761 183.938C237.673 184.938 237.515 185.927 237.288 186.906C237.077 187.342 236.739 187.634 236.274 187.783C234.793 187.992 233.306 188.036 231.812 187.918C231.142 187.887 230.622 187.594 230.257 187.041C230.083 184.757 229.992 182.464 229.987 180.161C229.73 180.435 229.438 180.66 229.108 180.835C228.827 180.317 228.51 179.824 228.162 179.352C230.202 178.17 231.78 176.551 232.894 174.495Z" fill="#005697"/>
<path opacity="0.918" fill-rule="evenodd" clip-rule="evenodd" d="M89.98 182.184C91.6475 182.184 93.3152 182.184 94.9827 182.184C94.9827 182.949 94.9827 183.713 94.9827 184.477C93.3152 184.477 91.6475 184.477 89.98 184.477C89.98 183.713 89.98 182.949 89.98 182.184Z" fill="#005698"/>
<path opacity="0.96" fill-rule="evenodd" clip-rule="evenodd" d="M200.85 200.261C202.292 200.261 203.734 200.261 205.176 200.261C205.176 201.07 205.176 201.88 205.176 202.689C207.34 202.689 209.503 202.689 211.666 202.689C211.666 201.88 211.666 201.07 211.666 200.261C213.063 200.261 214.461 200.261 215.858 200.261C215.858 201.07 215.858 201.88 215.858 202.689C218.336 202.689 220.816 202.689 223.294 202.689C223.294 203.903 223.294 205.117 223.294 206.332C220.816 206.332 218.336 206.332 215.858 206.332C215.858 206.961 215.858 207.59 215.858 208.22C214.461 208.22 213.063 208.22 211.666 208.22C211.666 207.59 211.666 206.961 211.666 206.332C209.503 206.332 207.34 206.332 205.176 206.332C205.176 206.961 205.176 207.59 205.176 208.22C203.734 208.22 202.292 208.22 200.85 208.22C200.85 207.59 200.85 206.961 200.85 206.332C198.416 206.332 195.982 206.332 193.549 206.332C193.549 205.117 193.549 203.903 193.549 202.689C195.982 202.689 198.416 202.689 200.85 202.689C200.85 201.88 200.85 201.07 200.85 200.261Z" fill="#005698"/>
<path opacity="0.964" fill-rule="evenodd" clip-rule="evenodd" d="M254.932 202.959C254.932 204.218 254.932 205.478 254.932 206.736C252.634 206.736 250.335 206.736 248.037 206.736C248.037 207.411 248.037 208.085 248.037 208.76C246.594 208.76 245.153 208.76 243.71 208.76C243.71 208.085 243.71 207.411 243.71 206.736C241.321 206.736 238.933 206.736 236.544 206.736C236.544 207.411 236.544 208.085 236.544 208.76C235.102 208.76 233.66 208.76 232.218 208.76C232.218 208.085 232.218 207.411 232.218 206.736C229.875 206.736 227.53 206.736 225.187 206.736C225.187 205.478 225.187 204.218 225.187 202.959C227.53 202.959 229.875 202.959 232.218 202.959C232.218 202.059 232.218 201.161 232.218 200.261C233.66 200.261 235.102 200.261 236.544 200.261C236.544 201.161 236.544 202.059 236.544 202.959C238.933 202.959 241.321 202.959 243.71 202.959C243.71 202.059 243.71 201.161 243.71 200.261C245.153 200.261 246.594 200.261 248.037 200.261C248.037 201.161 248.037 202.059 248.037 202.959C250.335 202.959 252.634 202.959 254.932 202.959Z" fill="#005698"/>
<path opacity="0.987" fill-rule="evenodd" clip-rule="evenodd" d="M42.9282 201.205C48.0845 200.949 52.5239 202.568 56.2461 206.062C59.8967 210.376 60.9783 215.278 59.4911 220.766C57.2086 226.864 52.8144 230.303 46.3084 231.086C40.4933 231.76 35.5583 230.03 31.5033 225.892C28.2037 221.663 27.2572 216.942 28.6639 211.728C30.596 206.338 34.3594 202.987 39.9537 201.677C40.9583 201.475 41.9497 201.317 42.9282 201.205ZM43.0634 208.085C47.7639 207.944 50.6258 210.147 51.6491 214.695C52.2119 218.179 51.1077 220.989 48.3365 223.127C45.2477 224.851 42.2281 224.716 39.2777 222.722C36.7666 220.332 35.8878 217.431 36.6411 214.021C37.573 210.735 39.7137 208.757 43.0634 208.085Z" fill="#005698"/>
<path opacity="0.985" fill-rule="evenodd" clip-rule="evenodd" d="M77.2706 201.205C81.581 200.953 85.4568 202.1 88.8984 204.645C89.5806 205.281 90.2116 205.955 90.7913 206.669C89.1077 208.281 87.3951 209.877 85.6534 211.458C85.092 210.965 84.5512 210.449 84.0309 209.906C80.7101 207.583 77.33 207.494 73.8904 209.637C71.2709 211.968 70.3471 214.868 71.1187 218.338C72.2028 222.23 74.7717 224.253 78.8255 224.408C81.5771 224.249 83.8306 223.125 85.5858 221.036C87.4239 222.487 89.1592 224.062 90.7913 225.757C88.1871 228.945 84.8069 230.722 80.6508 231.086C75.1447 231.743 70.3901 230.191 66.3865 226.432C62.7709 222.112 61.6892 217.211 63.1415 211.728C64.9718 206.304 68.69 202.955 74.296 201.677C75.3006 201.475 76.2921 201.317 77.2706 201.205Z" fill="#005698"/>
<path opacity="0.987" fill-rule="evenodd" clip-rule="evenodd" d="M-0.0675507 201.879C5.16064 201.856 10.3886 201.879 15.6164 201.947C23.27 203.083 26.6277 207.467 25.6893 215.1C24.8479 218.322 22.8875 220.594 19.8078 221.912C17.7281 222.75 15.5648 223.155 13.3179 223.126C11.6059 223.194 9.89328 223.217 8.18006 223.194C8.18006 225.666 8.18006 228.14 8.18006 230.613C5.43086 230.613 2.68165 230.613 -0.0675507 230.613C-0.0675507 221.035 -0.0675507 211.457 -0.0675507 201.879ZM8.18006 208.355C10.0735 208.332 11.9664 208.355 13.8587 208.422C16.824 208.999 18.0182 210.776 17.4417 213.751C16.8745 215.464 15.6803 216.385 13.8587 216.516C11.9664 216.584 10.0735 216.606 8.18006 216.584C8.18006 213.841 8.18006 211.097 8.18006 208.355Z" fill="#005698"/>
<path opacity="0.986" fill-rule="evenodd" clip-rule="evenodd" d="M91.6027 201.879C100.211 201.879 108.819 201.879 117.427 201.879C117.427 204.038 117.427 206.196 117.427 208.355C114.498 208.355 111.568 208.355 108.639 208.355C108.639 215.774 108.639 223.194 108.639 230.613C105.935 230.613 103.23 230.613 100.526 230.613C100.526 223.194 100.526 215.774 100.526 208.355C97.5518 208.355 94.5772 208.355 91.6027 208.355C91.6027 206.196 91.6027 204.038 91.6027 201.879Z" fill="#005698"/>
<path opacity="0.983" fill-rule="evenodd" clip-rule="evenodd" d="M120.807 201.88C123.556 201.88 126.306 201.88 129.055 201.88C129.055 205.567 129.055 209.255 129.055 212.942C130.318 212.965 131.58 212.942 132.841 212.874C135.094 209.232 137.347 205.59 139.601 201.947C142.531 201.857 145.46 201.857 148.389 201.947C145.38 206.514 142.405 211.1 139.466 215.707C142.412 220.647 145.387 225.571 148.389 230.479C145.28 230.658 142.17 230.658 139.06 230.479C136.977 226.904 134.858 223.352 132.705 219.822C131.492 219.687 130.275 219.642 129.055 219.687C129.055 223.329 129.055 226.971 129.055 230.614C126.306 230.614 123.556 230.614 120.807 230.614C120.807 221.036 120.807 211.458 120.807 201.88Z" fill="#005698"/>
<path opacity="0.988" fill-rule="evenodd" clip-rule="evenodd" d="M150.959 201.879C153.663 201.879 156.367 201.879 159.071 201.879C159.048 207.366 159.071 212.851 159.139 218.337C162.992 212.874 166.845 207.41 170.699 201.947C173.312 201.879 175.926 201.856 178.541 201.879C178.541 211.457 178.541 221.035 178.541 230.613C175.837 230.613 173.132 230.613 170.428 230.613C170.451 225.127 170.428 219.642 170.361 214.155C166.491 219.607 162.638 225.07 158.801 230.546C156.187 230.613 153.573 230.636 150.959 230.613C150.959 221.035 150.959 211.457 150.959 201.879Z" fill="#005698"/>
<path opacity="0.975" fill-rule="evenodd" clip-rule="evenodd" d="M206.799 231.423C206.708 231.423 206.619 231.423 206.528 231.423C205.48 230.516 204.399 229.64 203.283 228.792C203.598 228.478 203.915 228.162 204.23 227.848C202.292 227.781 200.355 227.758 198.416 227.781C198.416 228.365 198.416 228.95 198.416 229.534C197.108 229.534 195.802 229.534 194.495 229.534C194.495 222.789 194.495 216.044 194.495 209.299C198.055 209.299 201.616 209.299 205.176 209.299C205.153 215.055 205.176 220.81 205.244 226.566C206.486 224.691 207.162 222.623 207.272 220.361C207.339 216.584 207.362 212.807 207.339 209.029C212.116 209.029 216.895 209.029 221.671 209.029C221.694 215.144 221.671 221.261 221.604 227.376C221.463 228.987 220.629 230.044 219.102 230.546C217.036 230.738 214.962 230.805 212.883 230.748C212.634 229.53 212.364 228.316 212.072 227.106C213.556 226.994 215.044 226.927 216.534 226.904C216.999 226.755 217.337 226.463 217.548 226.027C217.615 225.309 217.638 224.589 217.615 223.868C215.361 223.868 213.109 223.868 210.855 223.868C210.255 226.801 208.902 229.32 206.799 231.423ZM211.396 212.402C213.468 212.402 215.542 212.402 217.615 212.402C217.615 213.211 217.615 214.021 217.615 214.83C215.542 214.83 213.468 214.83 211.396 214.83C211.396 214.021 211.396 213.211 211.396 212.402ZM198.416 212.807C199.453 212.807 200.489 212.807 201.526 212.807C201.526 214.156 201.526 215.505 201.526 216.854C200.489 216.854 199.453 216.854 198.416 216.854C198.416 215.505 198.416 214.156 198.416 212.807ZM211.396 218.203C213.468 218.203 215.542 218.203 217.615 218.203C217.615 219.012 217.615 219.821 217.615 220.631C215.496 220.631 213.379 220.631 211.26 220.631C211.361 219.825 211.405 219.016 211.396 218.203ZM198.416 220.091C199.453 220.091 200.489 220.091 201.526 220.091C201.526 221.485 201.526 222.88 201.526 224.273C200.489 224.273 199.453 224.273 198.416 224.273C198.416 222.88 198.416 221.485 198.416 220.091Z" fill="#005698"/>
<path opacity="0.97" fill-rule="evenodd" clip-rule="evenodd" d="M226.268 209.569C235.327 209.569 244.386 209.569 253.445 209.569C253.445 210.827 253.445 212.087 253.445 213.346C251.687 213.346 249.93 213.346 248.172 213.346C248.172 214.604 248.172 215.864 248.172 217.123C250.291 217.123 252.408 217.123 254.527 217.123C254.527 218.382 254.527 219.642 254.527 220.9C252.408 220.9 250.291 220.9 248.172 220.9C248.195 223.059 248.172 225.217 248.104 227.375C248.004 229.267 247.035 230.413 245.197 230.815C242.903 230.989 240.604 231.057 238.302 231.018C238.096 229.701 237.826 228.397 237.491 227.106C239.248 227.129 241.006 227.106 242.764 227.038C243.463 226.702 243.801 226.14 243.778 225.352C243.868 223.958 243.868 222.564 243.778 221.17C238.979 225.981 233.233 228.994 226.539 230.208C225.953 228.95 225.367 227.69 224.781 226.431C228.413 225.711 231.882 224.52 235.192 222.856C236.229 222.294 237.222 221.665 238.167 220.968C234.651 220.9 231.136 220.877 227.621 220.9C227.598 219.64 227.621 218.382 227.688 217.123C228.113 216.099 228.495 215.066 228.837 214.02C230.325 214.02 231.812 214.02 233.299 214.02C233.025 215.046 232.708 216.057 232.353 217.056C236.183 217.123 240.014 217.146 243.845 217.123C243.845 215.864 243.845 214.604 243.845 213.346C237.987 213.346 232.127 213.346 226.268 213.346C226.268 212.087 226.268 210.827 226.268 209.569Z" fill="#005698"/>
</g>
<defs>
<clipPath id="clip0_1_831">
<rect width="255" height="231.489" fill="white"/>
</clipPath>
</defs>
</svg>
