<svg width="33" height="33" viewBox="0 0 33 33" fill="none" xmlns="http://www.w3.org/2000/svg">
<path d="M27.5 9.625H5.5C3.98122 9.625 2.75 10.8562 2.75 12.375V26.125C2.75 27.6438 3.98122 28.875 5.5 28.875H27.5C29.0188 28.875 30.25 27.6438 30.25 26.125V12.375C30.25 10.8562 29.0188 9.625 27.5 9.625Z" stroke="#25282B" stroke-width="2" stroke-linecap="round" stroke-linejoin="round"/>
<path d="M22 28.875V6.875C22 6.14565 21.7103 5.44618 21.1945 4.93046C20.6788 4.41473 19.9793 4.125 19.25 4.125H13.75C13.0207 4.125 12.3212 4.41473 11.8055 4.93046C11.2897 5.44618 11 6.14565 11 6.875V28.875" stroke="#25282B" stroke-width="2" stroke-linecap="round" stroke-linejoin="round"/>
</svg>
