<svg width="44" height="42" viewBox="0 0 44 42" fill="none" xmlns="http://www.w3.org/2000/svg">
<path d="M43.5395 9.81455L22.2953 0.792004C22.1067 0.71191 21.8935 0.71191 21.7047 0.792004L0.460336 9.81455C0.12965 9.95497 -0.0564042 10.3087 0.0152674 10.6607C0.0870249 11.0127 0.396485 11.2656 0.755788 11.2656H2.68379V13.353C2.68379 13.7703 3.02204 14.1087 3.43943 14.1087H4.34607V16.7839C4.34607 17.2012 4.68432 17.5395 5.10172 17.5395H6.88964V32.8952H5.10163C4.68423 32.8952 4.34598 33.2335 4.34598 33.6509V36.3261H2.61822C2.20082 36.3261 1.86257 36.6644 1.86257 37.0817V40.5126C1.86257 40.9299 2.20082 41.2682 2.61822 41.2682H41.3818C41.7992 41.2682 42.1374 40.9298 42.1374 40.5126V37.0817C42.1374 36.6644 41.7992 36.3261 41.3818 36.3261H39.6541V33.6509C39.6541 33.2335 39.3159 32.8952 38.8985 32.8952H37.1104V17.5394H38.8985C39.3159 17.5394 39.6541 17.2011 39.6541 16.7838V14.1086H40.5607C40.9781 14.1086 41.3163 13.7702 41.3163 13.3529V11.2655H43.2444C43.6035 11.2655 43.9132 11.0126 43.9849 10.6606C44.0562 10.3087 43.8702 9.95497 43.5395 9.81455ZM22 2.30836L39.5321 9.75439H4.46776L22 2.30836ZM40.626 37.8372V39.7569H3.37369V37.8372H5.10154H38.8983H40.626ZM38.1428 34.4064V36.3261H5.85727V34.4064H7.6452H12.2168H19.7142H24.2858H31.7831H36.3547H38.1428ZM8.40084 32.8951V17.5394H11.4612V32.8951H8.40084ZM12.9724 32.8951V17.5394H18.9586V32.8951H12.9724ZM20.4699 32.8952V17.5394H23.5302V32.8952H20.4699ZM25.0415 32.8951V17.5394H31.0276V32.8951H25.0415ZM32.5387 32.8952V17.5394H35.5991V32.8952H32.5387ZM38.1428 16.0282H36.3547H31.7831H24.2858H19.7142H12.2168H7.6452H5.85727V14.1086H38.1428V16.0282ZM39.8049 12.5974H38.8984H5.10163H4.19499V11.2657H39.8049L39.8049 12.5974Z" fill="black"/>
<path d="M21.9998 4.20703C20.7764 4.20703 19.7812 5.20218 19.7812 6.42558C19.7812 7.64899 20.7764 8.64414 21.9998 8.64414C23.2232 8.64414 24.2184 7.64899 24.2184 6.42558C24.2184 5.20218 23.2232 4.20703 21.9998 4.20703ZM21.9998 7.13276C21.6098 7.13276 21.2925 6.81548 21.2925 6.42541C21.2925 6.03534 21.6097 5.71806 21.9998 5.71806C22.3899 5.71806 22.7072 6.03534 22.7072 6.42541C22.7072 6.81557 22.3898 7.13276 21.9998 7.13276Z" fill="black"/>
</svg>
