<svg width="36" height="36" viewBox="0 0 36 36" fill="none" xmlns="http://www.w3.org/2000/svg">
<rect x="0.5" y="0.5" width="35" height="35" rx="6.5" stroke="#BDBDBD"/>
<path d="M22.6154 9.69244C22.8578 9.45 23.1456 9.25768 23.4624 9.12647C23.7792 8.99527 24.1187 8.92773 24.4615 8.92773C24.8044 8.92773 25.1439 8.99527 25.4607 9.12647C25.7774 9.25768 26.0652 9.45 26.3077 9.69244C26.5501 9.93488 26.7424 10.2227 26.8737 10.5395C27.0049 10.8562 27.0724 11.1957 27.0724 11.5386C27.0724 11.8815 27.0049 12.221 26.8737 12.5377C26.7424 12.8545 26.5501 13.1423 26.3077 13.3847L13.8461 25.8463L8.76923 27.2309L10.1538 22.154L22.6154 9.69244Z" stroke="#3B8992" stroke-width="2" stroke-linecap="round" stroke-linejoin="round"/>
</svg>
