<svg width="49" height="45" viewBox="0 0 49 45" fill="none" xmlns="http://www.w3.org/2000/svg">
<path d="M38.6099 15.0745L39.578 11.6772" stroke="black" stroke-width="0.55"/>
<path d="M40.3623 11.7502L41.0967 13.0756" stroke="black" stroke-width="0.55"/>
<path d="M43.2999 9.09937L41.978 12.9281" stroke="black" stroke-width="0.55"/>
<path d="M4.67188 10.7929V5.7124L8.93126 7.03774V15.8734H4.67188V10.7929ZM4.67188 10.7929L5.55313 9.83569L6.2875 9.09939C6.5323 8.90304 7.11001 8.71651 7.46251 9.54117C7.81501 10.3658 8.63751 11.5046 8.93126 11.8973" stroke="black"/>
<path d="M20.8281 34.5754V31.3357C20.8281 30.7466 21.2198 30.5994 21.4156 30.5994H27.2906C27.9956 30.5994 28.1719 30.9921 28.1719 31.1884V34.5754C28.1719 35.0466 27.6823 35.1644 27.4375 35.1644H21.5625C21.0925 35.1644 20.8771 34.7717 20.8281 34.5754Z" stroke="black" stroke-width="1.35"/>
<path d="M20.6807 25.8867V27.8011" stroke="black" stroke-width="1.35"/>
<path d="M28.3188 25.8867V27.8011" stroke="black" stroke-width="1.35"/>
<path d="M2.1749 43.8527H2.00343C1.44981 43.8527 1.00154 43.4029 1.00344 42.8493L1.14346 1.99657C1.14535 1.44563 1.59251 1 2.14345 1H2.46865M2.1749 43.8527L2.46865 1M2.1749 43.8527L12.603 39.4349M2.46865 1L12.603 5.56507M12.603 39.4349V5.56507M12.603 39.4349H17.8906M12.603 5.56507H36.25M36.25 5.56507V39.4349M36.25 5.56507L46.6781 1M36.25 39.4349L46.6781 43.8527M36.25 39.4349H31.1093M46.6781 1V43.8527M46.6781 1H47C47.5523 1 48 1.44771 48 2V42.8527C48 43.405 47.5523 43.8527 47 43.8527H46.6781M18.4781 27.8014C18.0081 27.8014 17.8906 28.1941 17.8906 28.3904C17.8906 33.1518 17.8906 42.7925 17.8906 43.2637C17.8906 43.7349 18.2822 43.9509 18.4781 44C22.1499 44 29.6406 44 30.2281 44C30.8156 44 31.0604 43.411 31.1093 43.1164C31.1093 38.355 31.1093 28.7438 31.1093 28.3904C31.1093 28.037 30.7177 27.8505 30.5218 27.8014H24.5H18.4781ZM18.3312 23.6781H30.5218C30.8156 23.7272 31.4031 23.9726 31.4031 24.7089C31.4031 25.4452 30.9625 25.887 30.5218 25.887C29.5818 25.887 22.0031 25.887 18.3312 25.887C18.0374 25.7888 17.4499 25.4452 17.4499 24.8562C17.4499 24.1199 18.0374 23.6781 18.3312 23.6781Z" stroke="black" stroke-width="1.5"/>
<path d="M39.4035 16.0201C39.4035 16.4657 39.0434 16.8259 38.6004 16.8259C38.1574 16.8259 37.7973 16.4657 37.7973 16.0201C37.7973 15.5745 38.1574 15.2143 38.6004 15.2143C39.0434 15.2143 39.4035 15.5745 39.4035 16.0201Z" stroke="black" stroke-width="0.45"/>
<path d="M40.5773 11.0135C40.5773 11.4591 40.2172 11.8193 39.7742 11.8193C39.3312 11.8193 38.9711 11.4591 38.9711 11.0135C38.9711 10.5679 39.3312 10.2077 39.7742 10.2077C40.2172 10.2077 40.5773 10.5679 40.5773 11.0135Z" stroke="black" stroke-width="0.45"/>
<path d="M42.34 13.6644C42.34 14.11 41.9799 14.4702 41.5369 14.4702C41.0939 14.4702 40.7338 14.11 40.7338 13.6644C40.7338 13.2188 41.0939 12.8585 41.5369 12.8585C41.9799 12.8585 42.34 13.2188 42.34 13.6644Z" stroke="black" stroke-width="0.45"/>
<path d="M44.3972 8.36285C44.3972 8.80845 44.037 9.16868 43.594 9.16868C43.151 9.16868 42.7909 8.80845 42.7909 8.36285C42.7909 7.91725 43.151 7.55703 43.594 7.55703C44.037 7.55703 44.3972 7.91725 44.3972 8.36285Z" stroke="black" stroke-width="0.45"/>
</svg>
