<svg width="30" height="31" viewBox="0 0 30 31" fill="none" xmlns="http://www.w3.org/2000/svg">
<path d="M8.625 29.25H4.5C3.77065 29.25 3.07118 28.9603 2.55546 28.4445C2.03973 27.9288 1.75 27.2293 1.75 26.5V16.875C1.75 16.1457 2.03973 15.4462 2.55546 14.9305C3.07118 14.4147 3.77065 14.125 4.5 14.125H8.625M18.25 11.375V5.875C18.25 4.78098 17.8154 3.73177 17.0418 2.95818C16.2682 2.1846 15.219 1.75 14.125 1.75L8.625 14.125V29.25H24.135C24.7982 29.2575 25.4418 29.0251 25.9471 28.5955C26.4525 28.166 26.7856 27.5682 26.885 26.9125L28.7825 14.5375C28.8423 14.1434 28.8157 13.7409 28.7046 13.3581C28.5934 12.9753 28.4004 12.6212 28.1388 12.3203C27.8772 12.0195 27.5534 11.7792 27.1897 11.6159C26.826 11.4527 26.4311 11.3705 26.0325 11.375H18.25Z" stroke="#25282B" stroke-width="2" stroke-linecap="round" stroke-linejoin="round"/>
</svg>
