<svg width="65" height="63" viewBox="0 0 65 63" fill="none" xmlns="http://www.w3.org/2000/svg">
<path d="M10.6105 19.9091H2.12215C0.955197 19.9091 0 20.8595 0 22.0312V60.229C0 61.4002 0.951008 62.3508 2.12215 62.3508H10.6105C11.7817 62.3508 12.7327 61.4001 12.7327 60.229V22.0312C12.7327 20.8595 11.7773 19.9091 10.6105 19.9091Z" fill="#3B8992"/>
<path d="M59.7019 19.9091C59.3601 19.8513 43.358 19.9091 43.358 19.9091L45.5932 13.8113C47.1354 9.59977 46.1369 3.1692 41.8577 0.883027C40.4644 0.138573 38.5177 -0.235305 36.9481 0.159774C36.048 0.386259 35.257 0.982178 34.7855 1.78059C34.2433 2.69884 34.2993 3.77071 34.1062 4.78887C33.6165 7.37136 32.3962 9.82677 30.5065 11.6697C27.2118 14.8831 16.977 24.1532 16.977 24.1532V58.1069H52.3453C57.1177 58.1097 60.2454 52.7802 57.8915 48.6172C60.6973 46.8202 61.6569 43.0351 60.0137 40.1289C62.8196 38.3319 63.7791 34.5467 62.1358 31.6405C66.9771 28.5399 65.3585 20.8659 59.7019 19.9091Z" fill="#3B8992"/>
</svg>
