<svg width="36" height="36" viewBox="0 0 36 36" fill="none" xmlns="http://www.w3.org/2000/svg">
<rect x="0.5" y="0.5" width="35" height="35" rx="6.5" stroke="#BDBDBD"/>
<path d="M8.8082 16.1507C8.37746 16.3161 8.07186 16.7035 8.01086 17.1606C7.9505 17.6184 8.1448 18.0718 8.51768 18.3428L12.5999 21.3133L27.0991 9.906L14.2782 22.5369L19.8589 26.5978C20.2136 26.8556 20.672 26.933 21.0939 26.8053C21.5152 26.677 21.851 26.357 22.0019 25.9451L27.9719 9.60479C28.0322 9.43879 27.9895 9.25329 27.8637 9.12941C27.7386 9.00554 27.5531 8.96655 27.3871 9.03006L8.8082 16.1507Z" fill="#D21446"/>
<path d="M11.6303 22.3011L12.4572 26.8223C12.5163 27.1443 12.7314 27.414 13.0307 27.5442C13.33 27.6737 13.6752 27.646 13.9494 27.4693C15.0529 26.7575 16.4942 25.8131 16.4552 25.7577L11.6303 22.3011Z" fill="#D21446"/>
</svg>
