<svg width="15" height="20" viewBox="0 0 15 20" fill="none" xmlns="http://www.w3.org/2000/svg">
<path fill-rule="evenodd" clip-rule="evenodd" d="M7.5 19.1668C7.5 19.1668 15 14.1668 15 8.3335C15 6.34437 14.2098 4.43672 12.8033 3.03019C11.3968 1.62367 9.48912 0.833496 7.5 0.833496C5.51088 0.833496 3.60322 1.62367 2.1967 3.03019C0.790176 4.43672 0 6.34437 0 8.3335C0 14.1668 7.5 19.1668 7.5 19.1668ZM10 8.3335C10 9.71421 8.88071 10.8335 7.5 10.8335C6.11929 10.8335 5 9.71421 5 8.3335C5 6.95278 6.11929 5.8335 7.5 5.8335C8.88071 5.8335 10 6.95278 10 8.3335Z" fill="#FF1C12"/>
</svg>
