<svg xmlns="http://www.w3.org/2000/svg" viewBox="0 0 3145.62 3130.85"><defs><style>.cls-1{fill:#6eb1a4;}</style></defs><title>summit-bg-2</title><g id="Слой_2" data-name="Слой 2"><g id="Слой_1-2" data-name="Слой 1"><path class="cls-1" d="M1668.84,0c51.47,6.84,103.22,12,154.35,20.81,307,52.88,579.66,179.25,809.63,390.27,261.84,240.25,427.36,536.32,488.64,887,57.37,328.26,12.64,645-135.09,943.38-209.32,422.72-544.12,701.73-997,832.11-330.74,95.21-658.26,68-979-53.35C717,2909.28,477.12,2727.06,293.59,2473.66,119.24,2232.94,26.39,1961.22,3.9,1665.16c-.44-5.79-2.56-11.45-3.9-17.17q0-86,0-172.1c7.11-55.77,12.43-111.84,21.64-167.26,52.66-317,184.55-596,408.78-827.45C666.53,237.4,954.21,87.16,1287.79,25.7,1350,14.25,1413.16,8.42,1475.88,0ZM94,1563.5c3.25,834.55,682.18,1466.87,1482.75,1472,812.08,5.25,1462.85-663.36,1473.12-1440.57C3061.19,734.68,2366.59,97.26,1570.47,94.81,827.51,92.52,107.54,653.31,94,1563.5Z"/><path class="cls-1" d="M1889,1301c57.54-18.33,116.3-40.5,156,26.59,26.53,44.9,10.81,80.5-58.25,144.1,122.37,118.6,267,160.59,432.59,127.77,189.36-37.52,313-151,377.34-335-60.27-15.45-103.32-46.94-104-111.78-.88-83.16,59.94-109.92,128.53-126.42C2800,924.67,2754.2,840.53,2680.86,772.5c-96-89.06-209.38-143.88-340.59-151.54-177.35-10.35-312.42,66.22-406.25,215.31-51.14,81.25-107.07,157.8-178.32,223-113.3,103.74-244.43,132.35-389.21,89.3-57.3-17-110.17-49-168.15-75.56-7.94,17.17-18.37,39.58-28.68,62-51.3,111.82-144.84,173-257.11,207.87-67,20.79-136.75,32.45-204.94,49.52-35.29,8.83-69.88,20.49-104.78,30.88-6.64,2-13.68,6.41-19.81,5.39-9.05-1.5-17.46-6.88-26.14-10.6,6.08-5.64,11.23-13.22,18.37-16.63,67.26-32.12,137.84-58.47,201.81-96.11,177.39-104.36,262.55-264,265.24-468.52.85-65,.13-130.06.13-196,16.72,6.6,18.82,23.54,22,40,28.2,144.1,98.18,263.92,217.47,349.64,111,79.75,231.14,81.83,351.88,19.75,17.73-9.12,33.84-24.37,46.14-40.3,15.08-19.54,6.55-37.92-17.15-45.76-29.64-9.81-60.35,6.5-75.49,39.22-7.18,15.52-15.77,30.39-26.62,51.07-24.25-70.76-9.88-125.42,36.06-156.9,47.31-32.42,93.94-21.28,174.87,44.5l86.78-133.26c-21,0-32.74-.39-44.5.06-88.66,3.42-162.6-29.86-225.46-90.47-15-14.46-28.9-30.06-43.63-44.81-45-45-98.8-66.25-162.71-61-18.1,1.5-36.28,1.92-57.71,3,17.29-65.19,53.55-114.21,103.25-154C1498.29,405,1576.37,392,1662.79,420c98,31.79,176.63,91.11,245.3,165.75,5.78,6.28,11.71,12.41,17.82,18.89,22.07-11.84,42.59-22.94,63.19-33.88,279.32-148.43,744.28-66.58,857.82,380.48,57.63,226.89-12.17,425.27-191.87,580.74-114.38,99-246.18,148.81-397.83,136.5-109-8.85-208.54-49.83-305-99.35-52.42-26.9-105.08-53.8-159.5-76.17-45.49-18.7-94.3-21.75-143.55-13.4-20.07,3.4-40.74,3.3-64.47,5,10.66-64.5,48.17-103.64,97.25-132.94,49.6-29.6,105.63-30.57,166.13-28.3-33.58-208.8,38.72-369.73,211.35-487.87,1.37,23.68-6.65,40-28.11,63.61-30.26,33.27-63.83,64.39-89.13,101.15-60.53,87.93-75.36,186.87-58.33,291.26C1884.24,1293.85,1886.17,1295.93,1889,1301ZM1778.52,725.79c34.85.07,59.7-24.53,59.21-58.63a55.78,55.78,0,0,0-54.46-55.26C1749.4,611,1725.43,634.13,1725,668,1724.52,701.45,1747,725.72,1778.52,725.79Z"/><path class="cls-1" d="M849.71,616.7C844.64,664,843.42,711.12,787.88,722c-52.8,10.34-78.57-25.24-100.19-68.37-16.75,7.12-33,12.8-48.14,20.66-160.76,83.48-268.33,209.6-295.69,391.54-24.69,164.22,37.64,295.78,171,393.62,96.7,70.92,208.68,95.23,325.33,104.94,79.48,6.61,160,7.78,238.1,22.24,99.48,18.42,183.82,68,238.87,157.13,11.7,18.94,17.89,41.3,26.61,62.08l-9.14,5.59c-10.93-12.77-22.76-24.89-32.64-38.43-49.44-67.76-113.09-114.54-195.51-133.81-41.83-9.78-69.64,7.35-75,45.33-5.4,38.3,20.69,72,59.71,72.75,19.43.38,39.16-5.54,58.45-9.92,13.15-3,25.78-8.27,39.73-12.88-6.21,67-75.23,117.57-143.94,106-48.55-8.18-83.95-35.84-103.65-81.9-20-46.68-1.55-90,13.65-133.31-85.27-23.19-239.27,57.29-280.25,146.42,24.22,3.27,48.09,5.31,71.48,9.86,110.2,21.4,178.9,118.42,163.73,229.68-3,22.35-6.76,44.91-6.56,67.35.47,53.15,37,78.66,83.24,54,27.15-14.45,50.79-38.8,70.6-63.1,58.71-72,125.11-134.9,203.28-185.2,67.7-43.56,143.25-65.32,221.46-80a651.93,651.93,0,0,0,65.68-16.3c78-23.29,132.65-91.39,79.17-189.21-6.54-12-12.35-24.33-21.11-41.71,59.72,14.58,104.29,40.78,131.69,91.23,33.24,61.2,20.11,119-51.8,230.69,141.07,76.69,228.58,191.35,250.79,351.29l-8.57,4.52c-6.15-16.26-13.25-32.23-18.29-48.83-39.71-130.9-192.34-255.76-328.46-268.24-35.54-3.26-52.25,5.52-57.4,30.14-5.37,25.69,12.3,51.4,42.22,60,9.92,2.86,20.42,4.08,30.75,5,9.38.82,18.89.17,28.78.17-9.32,44.17-76.29,77.08-127.28,64.53-71.77-17.67-92.8-74.79-63.16-185.44-44,18.13-84.45,32.35-122.72,51.05-106.81,52.19-192.47,129.27-260.16,226.83-38.17,55-42.4,118.19-45.55,181.71-1,19.35-.15,38.79-6.26,58.41-26.49-66.62-26.53-135.78-22.85-205.76-38.86,4.33-76.29,11.61-113.81,12.11-128.53,1.7-244-98-264.2-225.32-11.51-72.46-3.49-143.67,12.59-214.46.94-4.14,1.68-8.32,2.57-12.81-42.53-14.43-85.37-25.54-125.33-43.17-129.34-57-211.52-156.74-244.19-293.07-46.84-195.51-1.17-378.37,85.3-554.59,63.67-129.75,166.3-220.85,287-294.1,43.72-26.52,89.65-49.47,135-73.19,72.47-37.88,129.3-90.11,159.22-168.23,4.51-11.79,11.41-22.67,20.63-40.65,9.63,14.23,17.89,22.67,21.76,32.79,21.38,55.83,25.5,113.09,11.61,171.5-2.17,9.12-3.1,18.54-4.42,26.67,48.83,12.39,97.62,21.52,144.18,37.26,105.9,35.78,196.14,93.32,247.41,197.84,38.85,79.19,43.74,163.52,33.6,249.5-.91,7.73-5.79,15-13.87,21.37-3.16-33.12-4.69-66.49-9.77-99.3C1341.84,796.38,1264,703.25,1135.66,650,1043.76,611.85,948.21,612,849.71,616.7Zm-86.4,1283.5c.38-23.93-17.73-42.92-42-44-25.4-1.13-48.56,20-48.17,44,.34,21.63,19.59,40.17,42.46,40.92C741.57,1942,762.93,1923.65,763.31,1900.21Z"/><path class="cls-1" d="M1982.47,1618.07c-12,31.21-23.52,62.63-36.16,93.59-19.95,48.83-23.72,99.43-16.51,150.9,4.84,34.53,25.94,52.72,54.84,50.77,29.82-2,51.33-24.61,54.17-56.73,3.09-34.95-8.48-63.07-38.08-83-10.63-7.17-21.07-14.63-32.3-22.44,36.46-23.09,89.94-13.31,124,21.12,57.44,58,49.41,150.86-19.87,202.11-24.63,18.22-54.06,30-82.56,45.33,5.78,30.78,96.22,104.33,144.72,112.56,14.83-32.39,27.23-65.77,44.71-96.24,32.49-56.67,80.1-97.07,140.87-122.59,38.3-16.08,76.2-33.67,112.55-53.73,47.3-26.09,71.51-69.25,80.06-121.79,1-6,.73-12.66,3.47-17.72,3-5.51,8.44-12.63,13.46-13.18,4.06-.45,11.11,7,13.37,12.33,24.89,59.21,38.72,120.9,34.61,185.3-8.44,132.2-68.8,236.31-175,314.11-23.67,17.34-48.78,33.31-75,46.45s-54.62,22-77.19,30.82c-14,67.05-24,133.25-42.17,197.11-23.88,83.78-67,158.33-121.49,227-122.54,154.37-280.58,245.09-475.55,270.53-113.28,14.78-220.61-12.25-326.21-50.78-84.28-30.75-157.34-80.72-230.75-130.15-66.13-44.53-136.73-67.13-216.9-52.17-10.16,1.9-20.79,1.41-31.2,1.8-3.42.13-6.86-.48-12.5-.92,10.61-37.33,35.44-62.21,66.57-79.55a388.09,388.09,0,0,1,81.41-33.5c19.35-5.55,30.59-11.73,35.76-33.18,8.36-34.66,23.36-67,60.66-90.19,3.79,14.58,8.28,26.27,9.73,38.32,10.83,90.47,52.76,164.38,119,225.46,23.59,21.76,31.5,20.07,47.76-6.49,16.15-26.37,21.41-52.8,5.06-81s-41.42-37.74-72.78-34.78c-9.3.88-18.75.14-28.13.14l-4.65-7c13.6-11.4,25.78-25.41,41.07-33.71,41.73-22.67,101.78-15.48,136.59,17.26,37.43,35.2,55.78,79.4,36.78,129.56-12,31.64-32.87,59.92-52.76,95,31.57,12.59,67,30.2,104.39,41q249.24,72.18,474.73-58.23c27.25-15.76,31.65-28.18,21.59-57.84s-40.61-52.57-68.46-51.45c-28.34,1.14-44.91,16.86-55.67,53-2.94,9.88-5.58,19.86-10.18,36.29-29.17-26.53-25.52-58.77-25.19-87,.53-45.27,44.71-89.53,89.3-95.48,62.68-8.37,105.14,28.7,141.15,123.55,2.35-.77,5.55-.81,7-2.42,90.31-102.59,149.54-216.94,133.63-358.95-11.5-102.68-50.67-193.81-114-275.49-62.35-80.41-99.13-170.27-97.72-274.23,1.12-83.32,33.81-155,76-223.9,2.64-4.32,6.82-7.87,10.81-11.13s8.45-5.48,12.72-8.17Z"/><path class="cls-1" d="M322.32,1649.87c-2.53,15.15-4.73,30.35-7.66,45.42-5.09,26.15,1.21,48.07,22.51,65,15.62,12.43,30.22,26.37,46.79,37.35,87.46,57.89,121.13,142.81,127.91,243.59,4.42,65.67,11.56,131.38,22.05,196.34,6.61,40.95,24.14,79.27,55.94,113.34,7.21-17,13.23-31.85,19.7-46.45,26.08-58.87,90.88-84.65,150.21-59.89,47.58,19.86,74.91,93.23,53.91,141.28-15.48-18.2-30-38.54-47.8-55.29-19.15-18-48.81-16.45-69.33-.32-21.47,16.88-29.28,46.5-17.56,69.84,11.24,22.39,32.34,31,55.08,34.82,170.42,28.51,324.67-6.32,456.62-121.24,82.13-71.53,127.56-165.38,154.38-269.16,8.2-31.72,14.84-63.83,25.57-95.74,18.3,32.71,22.67,68,20.52,103.51-2.19,36.06-8.66,71.85-12.88,104.81,49.6-8.93,100.05-18.87,150.82-26.79,25.66-4,51.87-5.16,77.88-6.19,55.07-2.18,105.69-18.34,153.16-45.74,8.8-5.08,18.5-8.61,27.78-12.85l8.52,3.07c-6.56,35.76-9.54,72.7-20.83,106.9-9,27.21-.94,37.41,21.57,49.32,92,48.68,163.19,120,217.7,208.1,6.7,10.83,22.14,22.47,4.88,40.55-76.13-44.2-161.24-61.12-245.9-79.9-147-32.61-293.67-22.85-440,3.1-108.52,19.25-216.19,43.46-324.89,61.52-86.91,14.44-174.32,31.46-263.29,20.2-197-24.93-355.15-113.9-451-291.8-87.26-162-92.13-330.19-12.58-498.15,7.54-15.92,21.34-28.88,32.23-43.21Zm33.56,259.51c-24-.75-42.62,17.56-43.07,42.25-.44,24.26,17.74,44.38,40.73,45.06,24.63.74,47.4-21,47.59-45.47C401.29,1930.57,379.17,1910.11,355.88,1909.38Z"/><path class="cls-1" d="M2718.76,1678.62c-20.64-40.18-63.1-63.41-71.22-107.89l6.74-6.11,82.51,74.88c28.26-72.33,64.72-136.56,139-169.16,33-14.49,67.33-19.78,107.78-17.77-12,22.83-20.72,42.43-32,60.48-68.66,110.31-95.18,232.87-98.66,360.14-2.3,83.93,7.07,168.12,8.16,252.24,1,76.8-19.09,149.75-54.12,217.77-53.78,104.43-135.61,181.53-239,235.9-56.17,29.52-118.68,32.89-179.91,37-57.64,3.85-115.73.83-173.62.83l-1.69-10.37c17.41-5.42,34.47-13.38,52.28-15.8,70.44-9.57,136.53-32.22,201-61.24,15-6.74,18.14-13.63,14-29.48-12.31-46.79-14.58-93.72-1.29-141.45,12.45-44.7,40.89-77.56,73.24-107.67,50-46.52,103.71-89.27,151.42-138,65.17-66.51,79.36-151.29,75.69-245-62.37,17.49-120.09,17.06-142.55-53.87C2614.21,1743.62,2667.59,1711.11,2718.76,1678.62Zm-109.53,743.84c31.25.6,55.06-22.08,55.43-52.81.38-31.19-26.28-58.56-57-58.59-28.21,0-55.67,26.39-56.21,54.07C2550.78,2397.17,2575.64,2421.82,2609.23,2422.47Z"/><path class="cls-1" d="M1214.65,452.89c15.68-9.07,29.48-14,38.91-23.28,11.73-11.58,24-25.66,28.18-40.83,3.13-11.37-2.19-31.27-11-38.08-10.09-7.83-31-11.65-42.21-6.41-53.46,25.12-97.81,62.14-128.3,113.88C1090.38,475,1081,492,1071.34,509L1061,504.41c11.62-29.41,20.66-60.18,35.33-88,57.12-108.28,147.55-181,257.68-229.3,205.8-90.17,410.28-85.8,609.77,19.23,101.74,53.57,174,139.32,236.39,233.77,4.88,7.39,6.09,17.21,9,25.9l-5.89,4.5c-12.29-12.31-25.65-23.74-36.69-37.09C2115.4,371.58,2060.83,314,1989.14,274.83c-22.53-12.3-41-10.85-59.39,5.53-8.41,7.5-16.74,15.15-24.59,23.23C1833,377.89,1752.42,393.25,1656,353c-53.43-22.33-107.08-44.86-162.3-61.87-28.09-8.65-59.88-5.27-90.66-7.37,0,25,.64,46.32-.12,67.58-2.77,77.53-88.1,137.18-162,113.38C1233,462.14,1225.67,457.9,1214.65,452.89Zm599.08-194.51c-.33-23.19-23-45.73-45-44.74-20.91.95-43.75,24.55-43,44.43.95,25.32,19.54,41.74,46.77,41.31C1795.49,299,1814.06,280.56,1813.74,258.38Z"/><path class="cls-1" d="M2572.51,1508.4c-80.85-34.11-164-54.61-252-55.67-88.82-1.07-167.17,29.93-242.15,75l-4.51-8.16c18.44-19.64,37.5-38.75,55.21-59,51.14-58.55,46.14-138.16-10.55-191.34-31.87-29.9-70.69-42.86-112.41-49.61-29.52-4.78-59.13-9-88.7-13.47l-.88-7.79c14.21-5,28.14-11.12,42.69-14.68,60.48-14.81,85.23-38.14,92-100.38,9.09-84,21-167,51.38-246.25a699.55,699.55,0,0,1,30.56-68.92c6.43-12.55,16.62-23.18,25.12-34.67l7.59,1.82c2.35,20.75,6.88,41.52,6.65,62.24-.89,80.38,20,156.22,47.51,230.38q71.63,193.19,218.78,338.2c37.68,37.06,77.43,72,115.78,108.38,8,7.58,13.94,17.3,20.84,26Z"/><path class="cls-1" d="M695.37,1163.42l-9.47,145.64-7,4.16c-18-26.53-40.19-51.21-53.12-80a791,791,0,0,1-46.2-132.48c-18.42-74.2-60.42-127.46-127.34-162.46-4.49-2.35-8.53-5.53-12.64-8.23q62.77-140.51,229.45-67.86c86.57-81.69,180.66-140.24,311.66-82.33-17.56,11.53-30.91,20.49-44.46,29.16C870,851.38,830.72,920.28,859,1005.39c4.09,12.28,5.56,25.41,8.68,38,17.78,71.76-24.87,108.15-85.62,119.2C756.33,1167.32,729,1163.42,695.37,1163.42ZM719.62,976.6c-24.65.34-43.33,20.54-42.57,46,.65,22,22.57,42,45.19,41.37,25-.75,42.36-18.5,42.41-43.27C764.68,996.44,744.09,976.26,719.62,976.6Z"/><path class="cls-1" d="M2668.24,786.45c-16.26,62.31-59.64,100.46-101.8,140.73,56.25,64.07,98.38,132.52,87,221.48-7.85,61.44-34.75,117.31-72.85,148.42-4.87-17.52-10.5-33.7-13.78-50.35-12.87-65.33-52.08-109.93-108.23-142.53-36.72-21.31-72.4-44.41-108.48-66.81-55.22-34.27-78.82-87.91-90.4-148.66-3.24-17-7.31-34.27-7.21-51.4.15-25.65-10.8-36.53-35.81-35-4.2.26-8.48-.94-13.14-1.51-1.89-20,8.37-26.25,25.84-27.37,73.34-4.71,145.18-.64,216.29,21.75,58.38,18.39,118.69,9.93,178.05-.14C2637.28,792.79,2650.72,789.87,2668.24,786.45ZM2410.87,966.53c26.84-.23,42.84-16.56,43.27-44.16.35-22.35-20.83-43.15-43.29-42.51-28.27.81-50.54,21.3-49.75,45.79C2361.93,951.79,2380.2,966.79,2410.87,966.53Z"/><path class="cls-1" d="M1891.51,2445.5c-10.27,14.07-18.26,30.84-31.21,41.73-47.82,40.2-97.26,78.49-146.14,117.44-66.38,52.9-118.13,115.95-131.59,202.5-5.69,36.61-5,74.21-7.31,113.36-31.85-.18-50.38-21-66.4-43-27.95-38.44-40.51-82.13-38.11-129.92.56-11.2.08-22.45.08-33.2-117.81-48.48-165.91-114.23-149.34-209.7,13.78,10.12,26.35,18.18,37.56,27.81,26.14,22.46,54.17,27,83.86,8.95,28.86-17.57,57.69-35.44,85-55.35,68.89-50.3,139.72-59,212.75-11.06,27.11,17.81,51.63,15.52,77.77.4,21.69-12.54,43.74-24.48,65.63-36.69Zm-244.2,125.92c-.28-24.44-18.59-41.69-43.25-40.75s-44.2,19.29-44.43,41.63c-.25,24,18.53,43.56,41.92,43.75C1628.71,2616.27,1647.62,2597.84,1647.31,2571.42Z"/><path class="cls-1" d="M843.5,1420.36c43.76,3.49,87.69,11.16,131.25,9.47,60.3-2.35,120.61-9.8,180.34-18.88,34.59-5.26,40.92-30.69,15.24-53.75-30.76-27.61-45.12-60.22-40.48-101.62,4.43-39.57,33.36-66.46,73.12-66.24,5.2,0,10.63-.2,15.55,1.13,44,11.95,84.15,5.07,125.91-32.74-40.53,189.21,22.54,320.7,193.17,397.88l.41,7.23c-20.87,7.64-41.17,18.14-62.7,22.43-100.06,19.92-204.3-25.42-260.41-112.94-10.7-16.69-19.6-23.51-41.11-18.09-91.51,23-183.64,27.19-275-1.47-20.17-6.33-39.11-16.61-58.61-25.07Z"/></g></g></svg>