<svg width="55" height="65" viewBox="0 0 55 65" fill="none" xmlns="http://www.w3.org/2000/svg">
<path d="M49.7171 0H13.8138C11.258 0 9.17805 2.08057 9.17805 4.63571V7.59628H4.95796C2.40214 7.59628 0.322372 9.67685 0.322372 12.232V60.3643C0.322372 62.9194 2.40214 65 4.95796 65H40.8625C43.4184 65 45.4982 62.9194 45.4982 60.3643V57.4037H49.7171C52.2733 57.4037 54.3528 55.3231 54.3528 52.7681V4.63571C54.3528 2.08057 52.2733 0 49.7171 0ZM41.7899 60.3643C41.7899 60.875 41.373 61.2915 40.8625 61.2915H4.95796C4.44755 61.2915 4.03071 60.8748 4.03071 60.3643V12.232C4.03071 11.7209 4.44755 11.3047 4.95796 11.3047H9.17805V52.768C9.17805 55.323 11.258 57.4036 13.8138 57.4036H41.7899V60.3643ZM50.6445 52.7681C50.6445 53.2787 50.2286 53.6954 49.7171 53.6954H13.8138C13.3022 53.6954 12.8867 53.2787 12.8867 52.7681V4.63571C12.8867 4.12477 13.3023 3.70846 13.8138 3.70846H49.717C50.2286 3.70846 50.6443 4.1249 50.6443 4.63571L50.6445 52.7681Z" fill="#828282"/>
<path d="M45.3632 11.5166H18.1679C17.1438 11.5166 16.3135 12.3476 16.3135 13.3707C16.3135 14.3958 17.144 15.2251 18.1679 15.2251H45.3629C46.3871 15.2251 47.2171 14.3957 47.2171 13.3707C47.2174 12.3478 46.3871 11.5166 45.3632 11.5166Z" fill="#828282"/>
<path d="M45.3632 20.3424H18.1679C17.1438 20.3424 16.3135 21.1731 16.3135 22.1965C16.3135 23.2213 17.144 24.0509 18.1679 24.0509H45.3629C46.3871 24.0509 47.2171 23.2212 47.2171 22.1965C47.2174 21.1733 46.3871 20.3424 45.3632 20.3424Z" fill="#828282"/>
<path d="M45.3632 29.1679H18.1679C17.1438 29.1679 16.3135 29.9991 16.3135 31.0224C16.3135 32.0472 17.144 32.8765 18.1679 32.8765H45.3629C46.3871 32.8765 47.2171 32.0472 47.2171 31.0224C47.2174 29.9991 46.3871 29.1679 45.3632 29.1679Z" fill="#828282"/>
<path d="M45.3632 37.9939H18.1679C17.1438 37.9939 16.3135 38.8251 16.3135 39.848C16.3135 40.8734 17.144 41.7024 18.1679 41.7024H45.3629C46.3871 41.7024 47.2171 40.8732 47.2171 39.848C47.2174 38.8251 46.3871 37.9939 45.3632 37.9939Z" fill="#828282"/>
</svg>
