<svg width="36" height="36" viewBox="0 0 36 36" fill="none" xmlns="http://www.w3.org/2000/svg">
<rect x="0.5" y="0.5" width="35" height="35" rx="6.5" stroke="#BDBDBD"/>
<path d="M25.125 21.75H22.125C21.9179 21.75 21.75 21.9179 21.75 22.125V25.125C21.75 25.3321 21.9179 25.5 22.125 25.5H25.125C25.3321 25.5 25.5 25.3321 25.5 25.125V22.125C25.5 21.9179 25.3321 21.75 25.125 21.75Z" fill="#3B8992"/>
<path d="M21.375 18.75H19.125C18.9179 18.75 18.75 18.9179 18.75 19.125V21.375C18.75 21.5821 18.9179 21.75 19.125 21.75H21.375C21.5821 21.75 21.75 21.5821 21.75 21.375V19.125C21.75 18.9179 21.5821 18.75 21.375 18.75Z" fill="#3B8992"/>
<path d="M28.125 25.5H25.875C25.6679 25.5 25.5 25.6679 25.5 25.875V28.125C25.5 28.3321 25.6679 28.5 25.875 28.5H28.125C28.3321 28.5 28.5 28.3321 28.5 28.125V25.875C28.5 25.6679 28.3321 25.5 28.125 25.5Z" fill="#3B8992"/>
<path d="M28.125 18.75H26.625C26.4179 18.75 26.25 18.9179 26.25 19.125V20.625C26.25 20.8321 26.4179 21 26.625 21H28.125C28.3321 21 28.5 20.8321 28.5 20.625V19.125C28.5 18.9179 28.3321 18.75 28.125 18.75Z" fill="#3B8992"/>
<path d="M20.625 26.25H19.125C18.9179 26.25 18.75 26.4179 18.75 26.625V28.125C18.75 28.3321 18.9179 28.5 19.125 28.5H20.625C20.8321 28.5 21 28.3321 21 28.125V26.625C21 26.4179 20.8321 26.25 20.625 26.25Z" fill="#3B8992"/>
<path d="M25.125 10.5H22.125C21.9179 10.5 21.75 10.6679 21.75 10.875V13.875C21.75 14.0821 21.9179 14.25 22.125 14.25H25.125C25.3321 14.25 25.5 14.0821 25.5 13.875V10.875C25.5 10.6679 25.3321 10.5 25.125 10.5Z" fill="#3B8992"/>
<path d="M27 8.25H20.25C19.8358 8.25 19.5 8.58579 19.5 9V15.75C19.5 16.1642 19.8358 16.5 20.25 16.5H27C27.4142 16.5 27.75 16.1642 27.75 15.75V9C27.75 8.58579 27.4142 8.25 27 8.25Z" stroke="#3B8992" stroke-width="1.125" stroke-linecap="round" stroke-linejoin="round"/>
<path d="M13.875 10.5H10.875C10.6679 10.5 10.5 10.6679 10.5 10.875V13.875C10.5 14.0821 10.6679 14.25 10.875 14.25H13.875C14.0821 14.25 14.25 14.0821 14.25 13.875V10.875C14.25 10.6679 14.0821 10.5 13.875 10.5Z" fill="#3B8992"/>
<path d="M15.75 8.25H9C8.58579 8.25 8.25 8.58579 8.25 9V15.75C8.25 16.1642 8.58579 16.5 9 16.5H15.75C16.1642 16.5 16.5 16.1642 16.5 15.75V9C16.5 8.58579 16.1642 8.25 15.75 8.25Z" stroke="#3B8992" stroke-width="1.125" stroke-linecap="round" stroke-linejoin="round"/>
<path d="M13.875 21.75H10.875C10.6679 21.75 10.5 21.9179 10.5 22.125V25.125C10.5 25.3321 10.6679 25.5 10.875 25.5H13.875C14.0821 25.5 14.25 25.3321 14.25 25.125V22.125C14.25 21.9179 14.0821 21.75 13.875 21.75Z" fill="#3B8992"/>
<path d="M15.75 19.5H9C8.58579 19.5 8.25 19.8358 8.25 20.25V27C8.25 27.4142 8.58579 27.75 9 27.75H15.75C16.1642 27.75 16.5 27.4142 16.5 27V20.25C16.5 19.8358 16.1642 19.5 15.75 19.5Z" stroke="#3B8992" stroke-width="1.125" stroke-linecap="round" stroke-linejoin="round"/>
</svg>
